<svg xmlns="http://www.w3.org/2000/svg" xmlns:xlink="http://www.w3.org/1999/xlink" width="180" zoomAndPan="magnify" viewBox="0 0 135 52.499999" height="70" preserveAspectRatio="xMidYMid meet" version="1.0"><defs><filter x="0%" y="0%" width="100%" height="100%" id="e5a1d79a35"><feColorMatrix values="0 0 0 0 1 0 0 0 0 1 0 0 0 0 1 0 0 0 1 0" color-interpolation-filters="sRGB"/></filter><g/><mask id="f8e7269734"><g filter="url(#e5a1d79a35)"><rect x="-13.5" width="162" fill="#000000" y="-5.25" height="62.999998" fill-opacity="0.2"/></g></mask><clipPath id="f5cf398678"><path d="M 0.214844 1 L 6.632812 1 L 6.632812 10.660156 L 0.214844 10.660156 Z M 0.214844 1 " clip-rule="nonzero"/></clipPath><clipPath id="35133dcd26"><path d="M 0.214844 0.914062 L 6.632812 0.914062 L 6.632812 10.660156 L 0.214844 10.660156 Z M 0.214844 0.914062 " clip-rule="nonzero"/></clipPath><clipPath id="1f85ce6479"><rect x="0" width="7" y="0" height="11"/></clipPath><mask id="5bf341acca"><g filter="url(#e5a1d79a35)"><rect x="-13.5" width="162" fill="#000000" y="-5.25" height="62.999998" fill-opacity="0.2"/></g></mask><clipPath id="a113bcdcee"><path d="M 1 0.480469 L 2.828125 0.480469 L 2.828125 3 L 1 3 Z M 1 0.480469 " clip-rule="nonzero"/></clipPath><clipPath id="132c7dd5a8"><rect x="0" width="3" y="0" height="4"/></clipPath><clipPath id="5cd94ee456"><path d="M 22 23 L 38 23 L 38 38.171875 L 22 38.171875 Z M 22 23 " clip-rule="nonzero"/></clipPath><clipPath id="596fa3b7a6"><path d="M 34 12.171875 L 55.464844 12.171875 L 55.464844 38 L 34 38 Z M 34 12.171875 " clip-rule="nonzero"/></clipPath><mask id="88e23b0724"><g filter="url(#e5a1d79a35)"><rect x="-13.5" width="162" fill="#000000" y="-5.25" height="62.999998" fill-opacity="0.2"/></g></mask><clipPath id="6bec77e5d6"><path d="M 1 0.394531 L 14.652344 0.394531 L 14.652344 8 L 1 8 Z M 1 0.394531 " clip-rule="nonzero"/></clipPath><clipPath id="76016f05b2"><rect x="0" width="15" y="0" height="9"/></clipPath><mask id="21d07bf0f3"><g filter="url(#e5a1d79a35)"><rect x="-13.5" width="162" fill="#000000" y="-5.25" height="62.999998" fill-opacity="0.2"/></g></mask><clipPath id="c5213c012c"><path d="M 0.863281 1 L 12 1 L 12 4.191406 L 0.863281 4.191406 Z M 0.863281 1 " clip-rule="nonzero"/></clipPath><clipPath id="cf36a6eea5"><rect x="0" width="13" y="0" height="5"/></clipPath><mask id="41ecc3e1e3"><g filter="url(#e5a1d79a35)"><rect x="-13.5" width="162" fill="#000000" y="-5.25" height="62.999998" fill-opacity="0.2"/></g></mask><clipPath id="53441f76b0"><path d="M 0.625 0.90625 L 9.898438 0.90625 L 9.898438 2.808594 L 0.625 2.808594 Z M 0.625 0.90625 " clip-rule="nonzero"/></clipPath><clipPath id="1c7107fd8e"><rect x="0" width="10" y="0" height="3"/></clipPath><clipPath id="379812a055"><path d="M 34 12.171875 L 55.464844 12.171875 L 55.464844 38.171875 L 34 38.171875 Z M 34 12.171875 " clip-rule="nonzero"/></clipPath><mask id="5839e966fd"><g filter="url(#e5a1d79a35)"><rect x="-13.5" width="162" fill="#000000" y="-5.25" height="62.999998" fill-opacity="0.2"/></g></mask><clipPath id="7a8afdf91b"><path d="M 0.632812 0.171875 L 21 0.171875 L 21 26 L 0.632812 26 Z M 0.632812 0.171875 " clip-rule="nonzero"/></clipPath><clipPath id="affe6cc7ed"><rect x="0" width="22" y="0" height="27"/></clipPath><mask id="434773e4c5"><g filter="url(#e5a1d79a35)"><rect x="-13.5" width="162" fill="#000000" y="-5.25" height="62.999998" fill-opacity="0.2"/></g></mask><clipPath id="9241d92d76"><path d="M 0.148438 0.617188 L 6.804688 0.617188 L 6.804688 3.945312 L 0.148438 3.945312 Z M 0.148438 0.617188 " clip-rule="nonzero"/></clipPath><clipPath id="b3f362647a"><rect x="0" width="7" y="0" height="4"/></clipPath><mask id="e1f266f5bb"><g filter="url(#e5a1d79a35)"><rect x="-13.5" width="162" fill="#000000" y="-5.25" height="62.999998" fill-opacity="0.2"/></g></mask><clipPath id="e970d69b15"><path d="M 0.675781 1 L 4.242188 1 L 4.242188 4.375 L 0.675781 4.375 Z M 0.675781 1 " clip-rule="nonzero"/></clipPath><clipPath id="98f8c1c0fa"><rect x="0" width="5" y="0" height="5"/></clipPath><clipPath id="f9bfc7d2d6"><path d="M 4.203125 12.171875 L 25 12.171875 L 25 38 L 4.203125 38 Z M 4.203125 12.171875 " clip-rule="nonzero"/></clipPath><mask id="f3084ebdea"><g filter="url(#e5a1d79a35)"><rect x="-13.5" width="162" fill="#000000" y="-5.25" height="62.999998" fill-opacity="0.2"/></g></mask><clipPath id="f6e88d85eb"><path d="M 0.867188 0.394531 L 14.417969 0.394531 L 14.417969 8 L 0.867188 8 Z M 0.867188 0.394531 " clip-rule="nonzero"/></clipPath><clipPath id="d9b7cc1a19"><rect x="0" width="15" y="0" height="9"/></clipPath><mask id="9bc6b9c427"><g filter="url(#e5a1d79a35)"><rect x="-13.5" width="162" fill="#000000" y="-5.25" height="62.999998" fill-opacity="0.2"/></g></mask><clipPath id="8dfcfad780"><path d="M 0.480469 1 L 11.65625 1 L 11.65625 4.191406 L 0.480469 4.191406 Z M 0.480469 1 " clip-rule="nonzero"/></clipPath><clipPath id="3609ec4cf2"><rect x="0" width="12" y="0" height="5"/></clipPath><mask id="4828232b1c"><g filter="url(#e5a1d79a35)"><rect x="-13.5" width="162" fill="#000000" y="-5.25" height="62.999998" fill-opacity="0.2"/></g></mask><clipPath id="8128eb77ea"><path d="M 0.382812 0.90625 L 9.894531 0.90625 L 9.894531 2.808594 L 0.382812 2.808594 Z M 0.382812 0.90625 " clip-rule="nonzero"/></clipPath><clipPath id="7a19e69e58"><rect x="0" width="10" y="0" height="3"/></clipPath><clipPath id="eaa6ed6faf"><path d="M 4.203125 12.171875 L 25 12.171875 L 25 38.171875 L 4.203125 38.171875 Z M 4.203125 12.171875 " clip-rule="nonzero"/></clipPath><mask id="de9083399a"><g filter="url(#e5a1d79a35)"><rect x="-13.5" width="162" fill="#000000" y="-5.25" height="62.999998" fill-opacity="0.2"/></g></mask><clipPath id="a84a1094d3"><path d="M 0.203125 0.171875 L 20.648438 0.171875 L 20.648438 26 L 0.203125 26 Z M 0.203125 0.171875 " clip-rule="nonzero"/></clipPath><clipPath id="9589bf4838"><rect x="0" width="21" y="0" height="27"/></clipPath><mask id="27d3ee1cd8"><g filter="url(#e5a1d79a35)"><rect x="-13.5" width="162" fill="#000000" y="-5.25" height="62.999998" fill-opacity="0.2"/></g></mask><clipPath id="726aebe188"><path d="M 0.472656 0.617188 L 7.132812 0.617188 L 7.132812 3.945312 L 0.472656 3.945312 Z M 0.472656 0.617188 " clip-rule="nonzero"/></clipPath><clipPath id="a33b194b64"><rect x="0" width="8" y="0" height="4"/></clipPath><mask id="c25f71fd7e"><g filter="url(#e5a1d79a35)"><rect x="-13.5" width="162" fill="#000000" y="-5.25" height="62.999998" fill-opacity="0.2"/></g></mask><clipPath id="cf80414334"><path d="M 0.0390625 1 L 3.605469 1 L 3.605469 4.375 L 0.0390625 4.375 Z M 0.0390625 1 " clip-rule="nonzero"/></clipPath><clipPath id="74eb8176e2"><rect x="0" width="4" y="0" height="5"/></clipPath></defs><path fill="#000000" d="M 36.808594 30.796875 C 36.808594 31.261719 36.765625 31.726562 36.671875 32.1875 C 36.582031 32.644531 36.445312 33.089844 36.265625 33.523438 C 36.089844 33.957031 35.867188 34.367188 35.609375 34.757812 C 35.347656 35.144531 35.050781 35.507812 34.722656 35.835938 C 34.390625 36.167969 34.03125 36.464844 33.640625 36.722656 C 33.25 36.984375 32.839844 37.203125 32.410156 37.382812 C 31.976562 37.5625 31.53125 37.695312 31.070312 37.789062 C 30.613281 37.878906 30.148438 37.925781 29.679688 37.925781 C 29.210938 37.925781 28.746094 37.878906 28.289062 37.789062 C 27.828125 37.695312 27.382812 37.5625 26.949219 37.382812 C 26.519531 37.203125 26.109375 36.984375 25.71875 36.722656 C 25.328125 36.464844 24.96875 36.167969 24.636719 35.835938 C 24.304688 35.507812 24.011719 35.144531 23.75 34.757812 C 23.492188 34.367188 23.269531 33.957031 23.09375 33.523438 C 22.914062 33.089844 22.777344 32.644531 22.6875 32.1875 C 22.59375 31.726562 22.550781 31.261719 22.550781 30.796875 C 22.550781 30.328125 22.59375 29.863281 22.6875 29.402344 C 22.777344 28.945312 22.914062 28.5 23.09375 28.066406 C 23.269531 27.632812 23.492188 27.222656 23.75 26.832031 C 24.011719 26.445312 24.304688 26.085938 24.636719 25.753906 C 24.96875 25.421875 25.328125 25.125 25.71875 24.867188 C 26.109375 24.605469 26.519531 24.386719 26.949219 24.207031 C 27.382812 24.027344 27.828125 23.894531 28.289062 23.800781 C 28.746094 23.710938 29.210938 23.664062 29.679688 23.664062 C 30.148438 23.664062 30.613281 23.710938 31.070312 23.800781 C 31.53125 23.894531 31.976562 24.027344 32.410156 24.207031 C 32.839844 24.386719 33.25 24.605469 33.640625 24.867188 C 34.03125 25.125 34.390625 25.421875 34.722656 25.753906 C 35.050781 26.085938 35.347656 26.445312 35.609375 26.832031 C 35.867188 27.222656 36.089844 27.632812 36.265625 28.066406 C 36.445312 28.5 36.582031 28.945312 36.671875 29.402344 C 36.765625 29.863281 36.808594 30.328125 36.808594 30.796875 Z M 36.808594 30.796875 " fill-opacity="1" fill-rule="nonzero"/><path fill="#ffffff" d="M 35.175781 30.796875 C 35.175781 31.15625 35.140625 31.511719 35.070312 31.867188 C 35 32.222656 34.894531 32.566406 34.757812 32.898438 C 34.617188 33.230469 34.449219 33.546875 34.25 33.847656 C 34.046875 34.148438 33.820312 34.425781 33.566406 34.679688 C 33.308594 34.9375 33.03125 35.164062 32.730469 35.363281 C 32.433594 35.5625 32.117188 35.734375 31.78125 35.871094 C 31.449219 36.011719 31.105469 36.113281 30.75 36.183594 C 30.398438 36.253906 30.039062 36.289062 29.679688 36.289062 C 29.320312 36.289062 28.960938 36.253906 28.609375 36.183594 C 28.253906 36.113281 27.910156 36.011719 27.578125 35.871094 C 27.242188 35.734375 26.925781 35.5625 26.625 35.363281 C 26.328125 35.164062 26.050781 34.9375 25.792969 34.679688 C 25.539062 34.425781 25.3125 34.148438 25.109375 33.847656 C 24.910156 33.546875 24.742188 33.230469 24.601562 32.898438 C 24.464844 32.566406 24.359375 32.222656 24.289062 31.867188 C 24.21875 31.511719 24.183594 31.15625 24.183594 30.796875 C 24.183594 30.433594 24.21875 30.078125 24.289062 29.722656 C 24.359375 29.371094 24.464844 29.027344 24.601562 28.691406 C 24.742188 28.359375 24.910156 28.042969 25.109375 27.742188 C 25.3125 27.441406 25.539062 27.164062 25.792969 26.910156 C 26.050781 26.65625 26.328125 26.425781 26.625 26.226562 C 26.925781 26.027344 27.242188 25.855469 27.578125 25.71875 C 27.910156 25.582031 28.253906 25.476562 28.609375 25.40625 C 28.960938 25.335938 29.320312 25.300781 29.679688 25.300781 C 30.039062 25.300781 30.398438 25.335938 30.75 25.40625 C 31.105469 25.476562 31.449219 25.582031 31.78125 25.71875 C 32.117188 25.855469 32.433594 26.027344 32.730469 26.226562 C 33.03125 26.425781 33.308594 26.65625 33.566406 26.910156 C 33.820312 27.164062 34.046875 27.441406 34.25 27.742188 C 34.449219 28.042969 34.617188 28.359375 34.757812 28.691406 C 34.894531 29.027344 35 29.371094 35.070312 29.722656 C 35.140625 30.078125 35.175781 30.433594 35.175781 30.796875 Z M 35.175781 30.796875 " fill-opacity="1" fill-rule="nonzero"/><path fill="#ffffff" d="M 34.464844 30.796875 C 34.464844 31.109375 34.433594 31.421875 34.371094 31.726562 C 34.308594 32.035156 34.21875 32.335938 34.097656 32.625 C 33.980469 32.914062 33.832031 33.191406 33.65625 33.453125 C 33.484375 33.714844 33.285156 33.957031 33.0625 34.179688 C 32.839844 34.398438 32.597656 34.597656 32.335938 34.773438 C 32.074219 34.945312 31.800781 35.09375 31.511719 35.214844 C 31.21875 35.335938 30.921875 35.425781 30.613281 35.488281 C 30.304688 35.546875 29.992188 35.578125 29.679688 35.578125 C 29.367188 35.578125 29.054688 35.546875 28.746094 35.488281 C 28.4375 35.425781 28.140625 35.335938 27.847656 35.214844 C 27.558594 35.09375 27.28125 34.945312 27.023438 34.773438 C 26.761719 34.597656 26.519531 34.398438 26.296875 34.179688 C 26.074219 33.957031 25.875 33.714844 25.703125 33.453125 C 25.527344 33.191406 25.378906 32.914062 25.261719 32.625 C 25.140625 32.335938 25.050781 32.035156 24.988281 31.726562 C 24.925781 31.421875 24.894531 31.109375 24.894531 30.796875 C 24.894531 30.480469 24.925781 30.171875 24.988281 29.863281 C 25.050781 29.554688 25.140625 29.253906 25.261719 28.964844 C 25.378906 28.675781 25.527344 28.398438 25.703125 28.136719 C 25.875 27.875 26.074219 27.632812 26.296875 27.414062 C 26.519531 27.191406 26.761719 26.992188 27.023438 26.816406 C 27.28125 26.644531 27.558594 26.496094 27.847656 26.375 C 28.140625 26.253906 28.4375 26.164062 28.746094 26.101562 C 29.054688 26.042969 29.367188 26.011719 29.679688 26.011719 C 29.992188 26.011719 30.304688 26.042969 30.613281 26.101562 C 30.921875 26.164062 31.21875 26.253906 31.511719 26.375 C 31.800781 26.496094 32.074219 26.644531 32.335938 26.816406 C 32.597656 26.992188 32.839844 27.191406 33.0625 27.414062 C 33.285156 27.632812 33.484375 27.875 33.65625 28.136719 C 33.832031 28.398438 33.980469 28.675781 34.097656 28.964844 C 34.21875 29.253906 34.308594 29.554688 34.371094 29.863281 C 34.433594 30.171875 34.464844 30.480469 34.464844 30.796875 Z M 34.464844 30.796875 " fill-opacity="1" fill-rule="nonzero"/><g mask="url(#f8e7269734)"><g transform="matrix(1, 0, 0, 1, 28, 25)"><g clip-path="url(#1f85ce6479)"><g clip-path="url(#f5cf398678)"><path fill="#000000" d="M 1.679688 1.011719 C 1.257812 1.011719 0.851562 1.0625 0.464844 1.167969 C 0.632812 1.148438 0.800781 1.140625 0.976562 1.140625 C 3.617188 1.140625 5.757812 3.28125 5.757812 5.925781 C 5.757812 8.148438 4.238281 10.015625 2.191406 10.554688 C 4.59375 10.300781 6.46875 8.265625 6.46875 5.796875 C 6.46875 3.15625 4.324219 1.011719 1.679688 1.011719 Z M 1.679688 1.011719 " fill-opacity="1" fill-rule="nonzero"/></g><g clip-path="url(#35133dcd26)"><path fill="#ffffff" d="M 2.191406 10.574219 C 2.183594 10.574219 2.175781 10.566406 2.175781 10.558594 C 2.175781 10.554688 2.183594 10.539062 2.191406 10.539062 C 4.285156 9.992188 5.746094 8.097656 5.746094 5.925781 C 5.746094 3.292969 3.605469 1.152344 0.976562 1.152344 C 0.808594 1.152344 0.640625 1.160156 0.472656 1.179688 C 0.464844 1.179688 0.457031 1.171875 0.453125 1.167969 C 0.453125 1.160156 0.457031 1.148438 0.464844 1.148438 C 0.859375 1.042969 1.273438 0.992188 1.6875 0.992188 C 4.335938 0.992188 6.488281 3.144531 6.488281 5.796875 C 6.488281 6.992188 6.050781 8.136719 5.246094 9.015625 C 4.445312 9.898438 3.367188 10.449219 2.191406 10.574219 Z M 0.976562 1.128906 C 3.625 1.128906 5.777344 3.28125 5.777344 5.929688 C 5.777344 8.042969 4.402344 9.898438 2.402344 10.519531 C 4.730469 10.171875 6.457031 8.179688 6.457031 5.808594 C 6.457031 3.175781 4.316406 1.039062 1.6875 1.039062 C 1.351562 1.039062 1.015625 1.070312 0.683594 1.140625 C 0.78125 1.128906 0.878906 1.128906 0.976562 1.128906 Z M 0.976562 1.128906 " fill-opacity="1" fill-rule="nonzero"/></g></g></g></g><path fill="#000000" d="M 29.679688 35.785156 C 26.933594 35.785156 24.695312 33.550781 24.695312 30.800781 C 24.695312 28.054688 26.933594 25.816406 29.679688 25.816406 C 32.425781 25.816406 34.664062 28.054688 34.664062 30.800781 C 34.664062 33.550781 32.433594 35.785156 29.679688 35.785156 Z M 29.679688 26.210938 C 27.152344 26.210938 25.097656 28.265625 25.097656 30.796875 C 25.097656 33.324219 27.152344 35.378906 29.679688 35.378906 C 32.207031 35.378906 34.261719 33.324219 34.261719 30.796875 C 34.269531 28.265625 32.214844 26.210938 29.679688 26.210938 Z M 29.679688 26.210938 " fill-opacity="1" fill-rule="nonzero"/><path fill="#ffffff" d="M 30.726562 30.796875 C 30.726562 30.933594 30.699219 31.066406 30.648438 31.195312 C 30.59375 31.324219 30.519531 31.4375 30.421875 31.535156 C 30.320312 31.632812 30.207031 31.710938 30.082031 31.761719 C 29.953125 31.816406 29.820312 31.84375 29.679688 31.84375 C 29.539062 31.84375 29.40625 31.816406 29.277344 31.761719 C 29.152344 31.710938 29.039062 31.632812 28.9375 31.535156 C 28.839844 31.4375 28.765625 31.324219 28.710938 31.195312 C 28.660156 31.066406 28.632812 30.933594 28.632812 30.796875 C 28.632812 30.65625 28.660156 30.523438 28.710938 30.394531 C 28.765625 30.265625 28.839844 30.152344 28.9375 30.054688 C 29.039062 29.957031 29.152344 29.878906 29.277344 29.828125 C 29.40625 29.773438 29.539062 29.746094 29.679688 29.746094 C 29.820312 29.746094 29.953125 29.773438 30.082031 29.828125 C 30.207031 29.878906 30.320312 29.957031 30.421875 30.054688 C 30.519531 30.152344 30.59375 30.265625 30.648438 30.394531 C 30.699219 30.523438 30.726562 30.65625 30.726562 30.796875 Z M 30.726562 30.796875 " fill-opacity="1" fill-rule="nonzero"/><path fill="#000000" d="M 29.679688 31.863281 C 29.097656 31.863281 28.621094 31.382812 28.621094 30.800781 C 28.621094 30.21875 29.097656 29.742188 29.679688 29.742188 C 30.261719 29.742188 30.738281 30.21875 30.738281 30.800781 C 30.738281 31.382812 30.269531 31.863281 29.679688 31.863281 Z M 29.679688 29.765625 C 29.109375 29.765625 28.652344 30.226562 28.652344 30.796875 C 28.652344 31.363281 29.109375 31.824219 29.679688 31.824219 C 30.25 31.824219 30.707031 31.363281 30.707031 30.796875 C 30.707031 30.234375 30.25 29.765625 29.679688 29.765625 Z M 29.679688 29.765625 " fill-opacity="1" fill-rule="nonzero"/><g mask="url(#5bf341acca)"><g transform="matrix(1, 0, 0, 1, 28, 29)"><g clip-path="url(#132c7dd5a8)"><g clip-path="url(#a113bcdcee)"><path fill="#000000" d="M 1.679688 0.753906 C 1.480469 0.753906 1.296875 0.8125 1.136719 0.902344 C 1.167969 0.898438 1.207031 0.898438 1.246094 0.898438 C 1.746094 0.898438 2.144531 1.296875 2.144531 1.796875 C 2.144531 2.292969 1.746094 2.695312 1.246094 2.695312 C 1.207031 2.695312 1.175781 2.695312 1.136719 2.6875 C 1.292969 2.785156 1.480469 2.835938 1.679688 2.835938 C 2.253906 2.835938 2.726562 2.371094 2.726562 1.789062 C 2.726562 1.207031 2.261719 0.753906 1.679688 0.753906 Z M 1.679688 0.753906 " fill-opacity="1" fill-rule="nonzero"/><path fill="#ffffff" d="M 1.679688 2.863281 C 1.484375 2.863281 1.292969 2.808594 1.128906 2.707031 C 1.125 2.699219 1.125 2.695312 1.125 2.6875 C 1.125 2.679688 1.136719 2.675781 1.144531 2.675781 C 1.183594 2.679688 1.214844 2.679688 1.246094 2.679688 C 1.730469 2.679688 2.132812 2.285156 2.132812 1.796875 C 2.132812 1.304688 1.738281 0.910156 1.246094 0.910156 C 1.214844 0.910156 1.175781 0.910156 1.144531 0.914062 C 1.136719 0.914062 1.128906 0.910156 1.125 0.902344 C 1.117188 0.898438 1.125 0.890625 1.128906 0.882812 C 1.296875 0.78125 1.484375 0.726562 1.679688 0.726562 C 2.261719 0.726562 2.738281 1.207031 2.738281 1.789062 C 2.738281 2.371094 2.269531 2.863281 1.679688 2.863281 Z M 1.214844 2.714844 C 1.355469 2.789062 1.519531 2.828125 1.6875 2.828125 C 2.253906 2.828125 2.714844 2.371094 2.714844 1.800781 C 2.714844 1.234375 2.253906 0.773438 1.6875 0.773438 C 1.523438 0.773438 1.363281 0.8125 1.214844 0.890625 C 1.226562 0.890625 1.238281 0.890625 1.246094 0.890625 C 1.75 0.890625 2.164062 1.304688 2.164062 1.808594 C 2.164062 2.3125 1.75 2.726562 1.246094 2.726562 C 1.234375 2.714844 1.226562 2.714844 1.214844 2.714844 Z M 1.214844 2.714844 " fill-opacity="1" fill-rule="nonzero"/></g></g></g></g><path fill="#000000" d="M 29.679688 36.546875 C 26.511719 36.546875 23.933594 33.96875 23.933594 30.800781 C 23.933594 27.632812 26.511719 25.054688 29.679688 25.054688 C 32.847656 25.054688 35.425781 27.632812 35.425781 30.800781 C 35.433594 33.96875 32.855469 36.546875 29.679688 36.546875 Z M 29.679688 25.566406 C 26.796875 25.566406 24.441406 27.910156 24.441406 30.800781 C 24.441406 33.683594 26.789062 36.039062 29.679688 36.039062 C 32.570312 36.039062 34.914062 33.691406 34.914062 30.800781 C 34.914062 27.910156 32.570312 25.566406 29.679688 25.566406 Z M 29.679688 25.566406 " fill-opacity="1" fill-rule="nonzero"/><path fill="#000000" d="M 34.46875 31.019531 L 34.46875 30.574219 L 31.714844 30.246094 C 31.671875 30.070312 31.597656 29.902344 31.507812 29.742188 L 33.222656 27.5625 L 32.90625 27.246094 L 30.726562 28.960938 C 30.570312 28.867188 30.402344 28.796875 30.222656 28.753906 L 29.894531 26 L 29.445312 26 L 29.117188 28.753906 C 28.941406 28.796875 28.773438 28.867188 28.613281 28.960938 L 26.433594 27.246094 L 26.117188 27.5625 L 27.832031 29.742188 C 27.738281 29.898438 27.667969 30.066406 27.625 30.246094 L 24.871094 30.574219 L 24.871094 31.019531 L 27.625 31.351562 C 27.667969 31.527344 27.738281 31.695312 27.832031 31.855469 L 26.117188 34.035156 L 26.433594 34.351562 L 28.613281 32.636719 C 28.769531 32.726562 28.9375 32.800781 29.117188 32.84375 L 29.445312 35.597656 L 29.894531 35.597656 L 30.222656 32.84375 C 30.398438 32.800781 30.566406 32.726562 30.726562 32.636719 L 32.90625 34.351562 L 33.222656 34.035156 L 31.507812 31.855469 C 31.597656 31.699219 31.671875 31.53125 31.714844 31.351562 Z M 29.679688 31.640625 C 29.214844 31.640625 28.839844 31.265625 28.839844 30.800781 C 28.839844 30.335938 29.214844 29.960938 29.679688 29.960938 C 30.144531 29.960938 30.519531 30.335938 30.519531 30.800781 C 30.527344 31.265625 30.144531 31.640625 29.679688 31.640625 Z M 29.679688 31.640625 " fill-opacity="1" fill-rule="nonzero"/><g clip-path="url(#5cd94ee456)"><path fill="#000000" d="M 37.242188 29.960938 L 36.796875 29.863281 L 37.199219 29.65625 L 36.765625 28.035156 L 36.3125 28.054688 L 36.648438 27.75 L 35.808594 26.296875 L 35.375 26.429688 L 35.621094 26.050781 L 34.429688 24.859375 L 34.050781 25.105469 L 34.183594 24.671875 L 32.730469 23.832031 L 32.425781 24.167969 L 32.445312 23.714844 L 30.824219 23.285156 L 30.617188 23.683594 L 30.519531 23.238281 L 28.839844 23.238281 L 28.742188 23.683594 L 28.535156 23.285156 L 26.914062 23.714844 L 26.933594 24.167969 L 26.628906 23.832031 L 25.171875 24.671875 L 25.308594 25.105469 L 24.929688 24.859375 L 23.738281 26.050781 L 23.984375 26.429688 L 23.550781 26.296875 L 22.710938 27.75 L 23.046875 28.054688 L 22.59375 28.035156 L 22.160156 29.65625 L 22.5625 29.863281 L 22.117188 29.960938 L 22.117188 31.640625 L 22.5625 31.738281 L 22.160156 31.945312 L 22.59375 33.570312 L 23.046875 33.550781 L 22.710938 33.851562 L 23.550781 35.308594 L 23.984375 35.171875 L 23.738281 35.554688 L 24.929688 36.742188 L 25.308594 36.496094 L 25.171875 36.929688 L 26.628906 37.769531 L 26.933594 37.433594 L 26.914062 37.886719 L 28.535156 38.320312 L 28.742188 37.917969 L 28.839844 38.363281 L 30.519531 38.363281 L 30.617188 37.917969 L 30.824219 38.320312 L 32.445312 37.886719 L 32.425781 37.433594 L 32.730469 37.769531 L 34.183594 36.929688 L 34.050781 36.496094 L 34.429688 36.742188 L 35.621094 35.554688 L 35.375 35.171875 L 35.808594 35.308594 L 36.648438 33.851562 L 36.3125 33.550781 L 36.765625 33.570312 L 37.199219 31.945312 L 36.796875 31.738281 L 37.242188 31.640625 Z M 35.039062 34.90625 L 33.792969 36.152344 L 32.265625 37.035156 L 30.566406 37.492188 L 28.808594 37.492188 L 27.105469 37.035156 L 25.574219 36.152344 L 24.328125 34.90625 L 23.449219 33.382812 L 22.988281 31.679688 L 22.988281 29.921875 L 23.449219 28.222656 L 24.328125 26.695312 L 25.574219 25.449219 L 27.101562 24.570312 L 28.800781 24.109375 L 30.558594 24.109375 L 32.257812 24.570312 L 33.785156 25.449219 L 35.03125 26.695312 L 35.910156 28.222656 L 36.371094 29.921875 L 36.371094 31.679688 L 35.910156 33.382812 Z M 35.039062 34.90625 " fill-opacity="1" fill-rule="nonzero"/></g><g clip-path="url(#596fa3b7a6)"><path fill="#38b6ff" d="M 40.273438 27.535156 L 53.476562 21.511719 C 53.441406 21.578125 51.761719 25.382812 49.921875 26.320312 C 49.015625 26.78125 46.667969 27.386719 44.496094 27.886719 C 42.332031 28.382812 40.347656 28.773438 40.140625 28.808594 C 40.140625 28.808594 40.140625 28.808594 40.132812 28.808594 L 50.746094 27.027344 C 50.746094 27.027344 50.554688 29.574219 48.589844 29.914062 C 46.625 30.253906 39.914062 30.085938 39.914062 30.085938 L 48.859375 30.929688 C 48.859375 30.929688 46.757812 33 44.792969 32.726562 C 42.90625 32.46875 39.917969 31.265625 39.691406 31.175781 C 39.6875 31.175781 39.6875 31.175781 39.679688 31.171875 L 45.710938 34.453125 C 45.710938 34.453125 44.425781 35.164062 42.898438 34.589844 C 41.414062 34.027344 39.355469 31.921875 39.261719 31.824219 L 42.050781 36.179688 C 42.050781 36.179688 39.667969 35.742188 38.867188 33.03125 C 38.378906 35.804688 35.878906 37.324219 35.089844 37.738281 C 35.089844 37.738281 35.089844 37.738281 35.082031 37.738281 C 34.949219 37.808594 34.863281 37.847656 34.851562 37.855469 C 38.210938 34.421875 38.238281 30.957031 38.023438 28.992188 C 38.023438 28.964844 38.019531 28.941406 38.019531 28.90625 C 37.929688 27.898438 38.335938 26.917969 39.078125 26.261719 C 39.234375 26.128906 39.394531 26.011719 39.578125 25.90625 C 40.125 25.589844 40.65625 25.28125 41.171875 24.96875 C 41.453125 24.800781 41.730469 24.628906 42 24.460938 C 50.765625 18.933594 54.089844 13.65625 54.78125 12.4375 C 54.878906 12.261719 54.921875 12.171875 54.921875 12.171875 C 54.921875 12.171875 54.960938 12.34375 55.015625 12.648438 C 55.242188 14.050781 55.617188 18.207031 52.628906 20.496094 C 52.410156 20.664062 52.132812 20.859375 51.808594 21.074219 C 48.53125 23.230469 40.535156 27.402344 40.273438 27.535156 Z M 40.273438 27.535156 " fill-opacity="1" fill-rule="nonzero"/></g><g mask="url(#88e23b0724)"><g transform="matrix(1, 0, 0, 1, 39, 21)"><g clip-path="url(#76016f05b2)"><g clip-path="url(#6bec77e5d6)"><path fill="#000000" d="M 14.476562 0.511719 C 14.441406 0.578125 12.761719 4.382812 10.921875 5.320312 C 10.015625 5.78125 7.667969 6.386719 5.496094 6.886719 C 4.25 7.152344 2.808594 7.460938 1.140625 7.808594 C 1.140625 7.808594 1.140625 7.808594 1.132812 7.808594 C 1.132812 7.808594 1.132812 7.808594 1.125 7.808594 C 10.226562 5.269531 14.410156 0.582031 14.476562 0.511719 Z M 14.476562 0.511719 " fill-opacity="1" fill-rule="nonzero"/></g></g></g></g><g mask="url(#21d07bf0f3)"><g transform="matrix(1, 0, 0, 1, 39, 26)"><g clip-path="url(#cf36a6eea5)"><g clip-path="url(#c5213c012c)"><path fill="#000000" d="M 11.753906 1.027344 C 11.753906 1.027344 11.558594 3.574219 9.59375 3.914062 C 7.628906 4.253906 0.917969 4.085938 0.917969 4.085938 C 0.917969 4.085938 7.097656 4.136719 11.753906 1.027344 Z M 11.753906 1.027344 " fill-opacity="1" fill-rule="nonzero"/></g></g></g></g><g mask="url(#41ecc3e1e3)"><g transform="matrix(1, 0, 0, 1, 39, 30)"><g clip-path="url(#1c7107fd8e)"><g clip-path="url(#53441f76b0)"><path fill="#000000" d="M 9.867188 0.929688 C 9.867188 0.929688 7.765625 3 5.800781 2.726562 C 3.914062 2.46875 0.925781 1.265625 0.699219 1.175781 C 0.691406 1.175781 0.691406 1.175781 0.6875 1.171875 C 0.785156 1.191406 5.742188 2.238281 9.867188 0.929688 Z M 9.867188 0.929688 " fill-opacity="1" fill-rule="nonzero"/></g></g></g></g><g clip-path="url(#379812a055)"><g mask="url(#5839e966fd)"><g transform="matrix(1, 0, 0, 1, 34, 12)"><g clip-path="url(#affe6cc7ed)"><g clip-path="url(#7a8afdf91b)"><path fill="#000000" d="M 7.171875 12.976562 C 7.050781 13.046875 6.929688 13.125 6.804688 13.195312 C 6.792969 13.203125 6.777344 13.214844 6.761719 13.222656 C 6.515625 13.371094 6.269531 13.511719 6.015625 13.664062 C 5.996094 13.675781 5.972656 13.6875 5.953125 13.699219 C 5.828125 13.773438 5.699219 13.84375 5.578125 13.921875 C 5.394531 14.023438 5.234375 14.140625 5.078125 14.277344 C 4.335938 14.929688 3.929688 15.910156 4.019531 16.921875 C 4.019531 16.945312 4.023438 16.972656 4.023438 17.003906 C 4.238281 18.96875 4.210938 22.433594 0.851562 25.867188 C 0.863281 25.859375 0.949219 25.828125 1.082031 25.75 C 1.082031 25.75 1.082031 25.75 1.089844 25.75 C 1.90625 25.277344 4.535156 23.230469 4.859375 16.132812 C 4.878906 15.835938 4.949219 15.542969 5.066406 15.257812 C 5.375 14.515625 5.984375 13.933594 6.726562 13.625 C 9.371094 12.539062 13.0625 10.890625 15.035156 9.382812 C 20.566406 5.175781 20.921875 0.171875 20.921875 0.171875 C 20.921875 0.171875 17.847656 6.480469 7.171875 12.976562 Z M 7.171875 12.976562 " fill-opacity="1" fill-rule="nonzero"/></g></g></g></g></g><g mask="url(#434773e4c5)"><g transform="matrix(1, 0, 0, 1, 39, 31)"><g clip-path="url(#b3f362647a)"><g clip-path="url(#9241d92d76)"><path fill="#000000" d="M 6.71875 3.453125 C 6.71875 3.453125 5.433594 4.164062 3.90625 3.589844 C 2.417969 3.027344 0.363281 0.921875 0.265625 0.824219 C 0.332031 0.875 2.871094 2.832031 6.71875 3.453125 Z M 6.71875 3.453125 " fill-opacity="1" fill-rule="nonzero"/></g></g></g></g><g mask="url(#e1f266f5bb)"><g transform="matrix(1, 0, 0, 1, 38, 32)"><g clip-path="url(#98f8c1c0fa)"><g clip-path="url(#e970d69b15)"><path fill="#000000" d="M 4.058594 4.179688 C 4.058594 4.179688 1.671875 3.742188 0.871094 1.03125 C 0.871094 1.03125 1.824219 2.601562 4.058594 4.179688 Z M 4.058594 4.179688 " fill-opacity="1" fill-rule="nonzero"/></g></g></g></g><g clip-path="url(#f9bfc7d2d6)"><path fill="#38b6ff" d="M 19.089844 27.535156 L 5.890625 21.511719 C 5.921875 21.578125 7.601562 25.382812 9.445312 26.320312 C 10.351562 26.78125 12.695312 27.386719 14.871094 27.886719 C 17.035156 28.382812 19.019531 28.773438 19.226562 28.808594 C 19.226562 28.808594 19.226562 28.808594 19.234375 28.808594 L 8.613281 27.027344 C 8.613281 27.027344 8.804688 29.574219 10.769531 29.914062 C 12.734375 30.253906 19.445312 30.085938 19.445312 30.085938 L 10.5 30.929688 C 10.5 30.929688 12.601562 33 14.566406 32.726562 C 16.453125 32.46875 19.441406 31.265625 19.664062 31.175781 C 19.671875 31.175781 19.671875 31.175781 19.679688 31.171875 L 13.648438 34.453125 C 13.648438 34.453125 14.933594 35.164062 16.460938 34.589844 C 17.945312 34.027344 20.003906 31.921875 20.097656 31.824219 L 17.304688 36.179688 C 17.304688 36.179688 19.691406 35.742188 20.492188 33.03125 C 20.976562 35.804688 23.480469 37.324219 24.269531 37.738281 C 24.269531 37.738281 24.269531 37.738281 24.273438 37.738281 C 24.410156 37.808594 24.496094 37.847656 24.507812 37.855469 C 21.144531 34.421875 21.121094 30.957031 21.332031 28.992188 C 21.332031 28.964844 21.339844 28.941406 21.339844 28.90625 C 21.429688 27.898438 21.023438 26.917969 20.28125 26.261719 C 20.125 26.128906 19.964844 26.011719 19.78125 25.90625 C 19.234375 25.589844 18.703125 25.28125 18.1875 24.96875 C 17.90625 24.800781 17.628906 24.628906 17.359375 24.460938 C 8.597656 18.933594 5.277344 13.65625 4.585938 12.4375 C 4.488281 12.261719 4.441406 12.171875 4.441406 12.171875 C 4.441406 12.171875 4.402344 12.34375 4.351562 12.648438 C 4.125 14.046875 3.75 18.207031 6.738281 20.492188 C 6.957031 20.660156 7.234375 20.851562 7.558594 21.066406 C 10.835938 23.230469 18.832031 27.402344 19.089844 27.535156 Z M 19.089844 27.535156 " fill-opacity="1" fill-rule="nonzero"/></g><g mask="url(#f3084ebdea)"><g transform="matrix(1, 0, 0, 1, 5, 21)"><g clip-path="url(#d9b7cc1a19)"><g clip-path="url(#f6e88d85eb)"><path fill="#000000" d="M 0.890625 0.511719 C 0.921875 0.578125 2.601562 4.382812 4.445312 5.320312 C 5.351562 5.78125 7.695312 6.386719 9.871094 6.886719 C 11.117188 7.152344 12.558594 7.460938 14.226562 7.808594 C 14.226562 7.808594 14.226562 7.808594 14.234375 7.808594 C 14.234375 7.808594 14.234375 7.808594 14.238281 7.808594 C 5.136719 5.269531 0.953125 0.582031 0.890625 0.511719 Z M 0.890625 0.511719 " fill-opacity="1" fill-rule="nonzero"/></g></g></g></g><g mask="url(#9bc6b9c427)"><g transform="matrix(1, 0, 0, 1, 8, 26)"><g clip-path="url(#3609ec4cf2)"><g clip-path="url(#8dfcfad780)"><path fill="#000000" d="M 0.613281 1.027344 C 0.613281 1.027344 0.804688 3.574219 2.769531 3.914062 C 4.734375 4.253906 11.445312 4.085938 11.445312 4.085938 C 11.445312 4.085938 5.257812 4.136719 0.613281 1.027344 Z M 0.613281 1.027344 " fill-opacity="1" fill-rule="nonzero"/></g></g></g></g><g mask="url(#4828232b1c)"><g transform="matrix(1, 0, 0, 1, 10, 30)"><g clip-path="url(#7a19e69e58)"><g clip-path="url(#8128eb77ea)"><path fill="#000000" d="M 0.5 0.929688 C 0.5 0.929688 2.601562 3 4.566406 2.726562 C 6.453125 2.46875 9.441406 1.265625 9.664062 1.175781 C 9.671875 1.175781 9.671875 1.175781 9.679688 1.171875 C 9.582031 1.191406 4.625 2.238281 0.5 0.929688 Z M 0.5 0.929688 " fill-opacity="1" fill-rule="nonzero"/></g></g></g></g><g clip-path="url(#eaa6ed6faf)"><g mask="url(#de9083399a)"><g transform="matrix(1, 0, 0, 1, 4, 12)"><g clip-path="url(#9589bf4838)"><g clip-path="url(#a84a1094d3)"><path fill="#000000" d="M 14.191406 12.976562 C 14.316406 13.046875 14.4375 13.125 14.5625 13.195312 C 14.574219 13.203125 14.585938 13.214844 14.605469 13.222656 C 14.851562 13.371094 15.097656 13.511719 15.347656 13.664062 C 15.367188 13.675781 15.394531 13.6875 15.414062 13.699219 C 15.535156 13.773438 15.664062 13.84375 15.789062 13.921875 C 15.96875 14.023438 16.132812 14.140625 16.285156 14.277344 C 17.03125 14.929688 17.4375 15.910156 17.347656 16.921875 C 17.347656 16.945312 17.339844 16.972656 17.339844 17.003906 C 17.128906 18.96875 17.152344 22.433594 20.515625 25.867188 C 20.5 25.859375 20.417969 25.828125 20.28125 25.75 C 20.28125 25.75 20.28125 25.75 20.273438 25.75 C 19.460938 25.277344 16.828125 23.230469 16.507812 16.132812 C 16.488281 15.835938 16.414062 15.542969 16.300781 15.257812 C 15.988281 14.515625 15.382812 13.933594 14.636719 13.625 C 11.996094 12.539062 8.304688 10.890625 6.332031 9.382812 C 0.796875 5.175781 0.441406 0.171875 0.441406 0.171875 C 0.441406 0.171875 3.519531 6.480469 14.191406 12.976562 Z M 14.191406 12.976562 " fill-opacity="1" fill-rule="nonzero"/></g></g></g></g></g><g mask="url(#27d3ee1cd8)"><g transform="matrix(1, 0, 0, 1, 13, 31)"><g clip-path="url(#a33b194b64)"><g clip-path="url(#726aebe188)"><path fill="#000000" d="M 0.648438 3.453125 C 0.648438 3.453125 1.933594 4.164062 3.460938 3.589844 C 4.945312 3.027344 7.003906 0.921875 7.097656 0.824219 C 7.035156 0.875 4.492188 2.832031 0.648438 3.453125 Z M 0.648438 3.453125 " fill-opacity="1" fill-rule="nonzero"/></g></g></g></g><g mask="url(#c25f71fd7e)"><g transform="matrix(1, 0, 0, 1, 17, 32)"><g clip-path="url(#74eb8176e2)"><g clip-path="url(#cf80414334)"><path fill="#000000" d="M 0.304688 4.179688 C 0.304688 4.179688 2.691406 3.742188 3.492188 1.03125 C 3.492188 1.03125 2.542969 2.601562 0.304688 4.179688 Z M 0.304688 4.179688 " fill-opacity="1" fill-rule="nonzero"/></g></g></g></g><path fill="#38b6ff" d="M 29.679688 19.242188 L 30.15625 20.207031 L 31.210938 20.355469 L 30.449219 21.105469 L 30.628906 22.152344 L 29.679688 21.660156 L 28.734375 22.152344 L 28.917969 21.105469 L 28.152344 20.355469 L 29.207031 20.207031 Z M 29.679688 19.242188 " fill-opacity="1" fill-rule="nonzero"/><path fill="#38b6ff" d="M 33.265625 20.9375 L 33.585938 21.578125 L 34.28125 21.671875 L 33.777344 22.171875 L 33.894531 22.875 L 33.265625 22.539062 L 32.632812 22.875 L 32.757812 22.171875 L 32.246094 21.671875 L 32.949219 21.578125 Z M 33.265625 20.9375 " fill-opacity="1" fill-rule="nonzero"/><path fill="#38b6ff" d="M 26.097656 20.9375 L 26.414062 21.578125 L 27.121094 21.671875 L 26.609375 22.171875 L 26.726562 22.875 L 26.097656 22.539062 L 25.472656 22.875 L 25.585938 22.171875 L 25.078125 21.671875 L 25.78125 21.578125 Z M 26.097656 20.9375 " fill-opacity="1" fill-rule="nonzero"/><g fill="#081427" fill-opacity="1"><g transform="translate(51.332904, 35.529799)"><g><path d="M 8.921875 -10.859375 L 11.296875 0 L 8.28125 0 L 7.875 -1.890625 L 3.984375 -1.890625 L 2.9375 0 L -0.0625 0 L 5.828125 -10.859375 Z M 5.109375 -4.046875 L 7.46875 -4.046875 L 6.859375 -7.5 L 6.828125 -7.5 Z M 5.109375 -4.046875 "/></g></g></g><g fill="#081427" fill-opacity="1"><g transform="translate(62.264621, 35.529799)"><g><path d="M 5.40625 -10.859375 L 4.515625 -5.125 C 4.421875 -4.601562 4.375 -4.179688 4.375 -3.859375 C 4.375 -3.316406 4.488281 -2.898438 4.71875 -2.609375 C 4.957031 -2.328125 5.367188 -2.1875 5.953125 -2.1875 C 6.648438 -2.1875 7.179688 -2.414062 7.546875 -2.875 C 7.921875 -3.332031 8.179688 -4.050781 8.328125 -5.03125 L 9.234375 -10.859375 L 12.0625 -10.859375 L 11.078125 -4.609375 C 10.890625 -3.335938 10.554688 -2.367188 10.078125 -1.703125 C 9.609375 -1.046875 8.984375 -0.550781 8.203125 -0.21875 C 7.421875 0.113281 6.539062 0.28125 5.5625 0.28125 C 4.238281 0.28125 3.21875 0 2.5 -0.5625 C 1.789062 -1.132812 1.4375 -1.96875 1.4375 -3.0625 C 1.4375 -3.269531 1.445312 -3.492188 1.46875 -3.734375 C 1.488281 -3.972656 1.859375 -6.347656 2.578125 -10.859375 Z M 5.40625 -10.859375 "/></g></g></g><g fill="#081427" fill-opacity="1"><g transform="translate(73.153118, 35.529799)"><g><path d="M 9.296875 -10.859375 L 8.921875 -8.46875 L 6.578125 -8.46875 L 5.25 0 L 2.421875 0 L 3.765625 -8.46875 L 1.421875 -8.46875 L 1.796875 -10.859375 Z M 9.296875 -10.859375 "/></g></g></g><g fill="#081427" fill-opacity="1"><g transform="translate(80.512836, 35.529799)"><g><path d="M 13.359375 -6.484375 C 13.359375 -5.429688 13.054688 -4.34375 12.453125 -3.21875 C 11.847656 -2.101562 10.988281 -1.226562 9.875 -0.59375 C 8.769531 0.0390625 7.585938 0.359375 6.328125 0.359375 C 4.796875 0.359375 3.554688 -0.0859375 2.609375 -0.984375 C 1.660156 -1.878906 1.1875 -3.0625 1.1875 -4.53125 C 1.1875 -5.75 1.503906 -6.867188 2.140625 -7.890625 C 2.773438 -8.910156 3.640625 -9.71875 4.734375 -10.3125 C 5.835938 -10.914062 6.976562 -11.21875 8.15625 -11.21875 C 9.082031 -11.21875 9.953125 -11.015625 10.765625 -10.609375 C 11.578125 -10.210938 12.210938 -9.65625 12.671875 -8.9375 C 13.128906 -8.21875 13.359375 -7.398438 13.359375 -6.484375 Z M 6.75 -2.375 C 7.40625 -2.375 8.007812 -2.550781 8.5625 -2.90625 C 9.113281 -3.269531 9.550781 -3.738281 9.875 -4.3125 C 10.207031 -4.882812 10.375 -5.445312 10.375 -6 C 10.375 -6.695312 10.109375 -7.285156 9.578125 -7.765625 C 9.054688 -8.242188 8.429688 -8.484375 7.703125 -8.484375 C 7.140625 -8.484375 6.578125 -8.328125 6.015625 -8.015625 C 5.460938 -7.710938 5.015625 -7.300781 4.671875 -6.78125 C 4.328125 -6.257812 4.15625 -5.6875 4.15625 -5.0625 C 4.15625 -4.28125 4.398438 -3.632812 4.890625 -3.125 C 5.378906 -2.625 6 -2.375 6.75 -2.375 Z M 6.75 -2.375 "/></g></g></g><g fill="#38b6ff" fill-opacity="1"><g transform="translate(92.983365, 35.529799)"><g><path d="M 9.828125 -7.21875 C 9.609375 -7.601562 9.289062 -7.894531 8.875 -8.09375 C 8.46875 -8.300781 8.019531 -8.40625 7.53125 -8.40625 C 6.625 -8.40625 5.828125 -8.054688 5.140625 -7.359375 C 4.460938 -6.660156 4.125 -5.832031 4.125 -4.875 C 4.125 -4.144531 4.351562 -3.554688 4.8125 -3.109375 C 5.269531 -2.671875 5.878906 -2.453125 6.640625 -2.453125 C 7.097656 -2.453125 7.5625 -2.550781 8.03125 -2.75 C 8.5 -2.957031 8.910156 -3.238281 9.265625 -3.59375 L 8.71875 -0.21875 C 8.507812 -0.144531 8.15625 -0.046875 7.65625 0.078125 C 7.15625 0.210938 6.65625 0.28125 6.15625 0.28125 C 5.28125 0.28125 4.460938 0.09375 3.703125 -0.28125 C 2.941406 -0.65625 2.328125 -1.1875 1.859375 -1.875 C 1.398438 -2.5625 1.164062 -3.363281 1.15625 -4.28125 C 1.15625 -5.507812 1.457031 -6.644531 2.0625 -7.6875 C 2.664062 -8.726562 3.503906 -9.566406 4.578125 -10.203125 C 5.648438 -10.835938 6.75 -11.15625 7.875 -11.15625 C 8.6875 -11.15625 9.519531 -10.972656 10.375 -10.609375 Z M 9.828125 -7.21875 "/></g></g></g><g fill="#38b6ff" fill-opacity="1"><g transform="translate(102.172291, 35.529799)"><g><path d="M 8.921875 -10.859375 L 11.296875 0 L 8.28125 0 L 7.875 -1.890625 L 3.984375 -1.890625 L 2.9375 0 L -0.0625 0 L 5.828125 -10.859375 Z M 5.109375 -4.046875 L 7.46875 -4.046875 L 6.859375 -7.5 L 6.828125 -7.5 Z M 5.109375 -4.046875 "/></g></g></g><g fill="#38b6ff" fill-opacity="1"><g transform="translate(113.104008, 35.529799)"><g><path d="M 6.921875 -10.859375 C 7.910156 -10.859375 8.695312 -10.628906 9.28125 -10.171875 C 9.875 -9.710938 10.171875 -9.050781 10.171875 -8.1875 C 10.171875 -7.257812 9.894531 -6.441406 9.34375 -5.734375 C 8.800781 -5.035156 8.101562 -4.609375 7.25 -4.453125 L 9.953125 0 L 6.4375 0 L 4.4375 -4.171875 L 4.40625 -4.171875 L 3.75 0 L 0.921875 0 L 2.640625 -10.859375 Z M 4.703125 -6 L 5.078125 -6 C 5.742188 -6 6.257812 -6.132812 6.625 -6.40625 C 6.988281 -6.6875 7.171875 -7.097656 7.171875 -7.640625 C 7.171875 -8.347656 6.585938 -8.703125 5.421875 -8.703125 L 5.125 -8.703125 Z M 4.703125 -6 "/></g></g></g><g fill="#38b6ff" fill-opacity="1"><g transform="translate(122.580998, 35.529799)"><g><path d="M 8.8125 -10.859375 L 8.4375 -8.46875 L 5.078125 -8.46875 L 4.796875 -6.65625 L 7.984375 -6.65625 L 7.609375 -4.265625 L 4.421875 -4.265625 L 4.125 -2.390625 L 7.484375 -2.390625 L 7.109375 0 L 0.921875 0 L 2.640625 -10.859375 Z M 8.8125 -10.859375 "/></g></g></g></svg>