<svg xmlns="http://www.w3.org/2000/svg" xmlns:xlink="http://www.w3.org/1999/xlink" width="190" zoomAndPan="magnify" viewBox="0 0 142.5 89.999999" height="120" preserveAspectRatio="xMidYMid meet" version="1.0"><defs><clipPath id="694249a469"><path d="M 0 9.125 L 142 9.125 L 142 88.347656 L 0 88.347656 Z M 0 9.125 " clip-rule="nonzero"/></clipPath><clipPath id="230759d433"><path d="M 71 45.308594 C 69.175781 45.308594 67.691406 46.796875 67.691406 48.625 C 67.691406 50.453125 69.175781 51.941406 71 51.941406 C 72.828125 51.941406 74.3125 50.453125 74.3125 48.625 C 74.3125 46.796875 72.828125 45.308594 71 45.308594 Z M 71 49.6875 C 70.417969 49.6875 69.945312 49.210938 69.945312 48.625 C 69.945312 48.039062 70.417969 47.5625 71 47.5625 C 71.582031 47.5625 72.058594 48.039062 72.058594 48.625 C 72.058594 49.210938 71.582031 49.6875 71 49.6875 Z M 81.609375 33.324219 C 81.210938 33.046875 80.679688 33.054688 80.289062 33.347656 L 70.066406 40.996094 C 69.921875 41.015625 69.78125 41.027344 69.636719 41.050781 C 67.617188 41.414062 65.855469 42.542969 64.6875 44.234375 C 62.269531 47.714844 63.128906 52.523438 66.601562 54.945312 C 67.90625 55.851562 69.417969 56.324219 70.972656 56.324219 C 71.425781 56.324219 71.886719 56.285156 72.34375 56.203125 C 74.363281 55.839844 76.121094 54.710938 77.292969 53.019531 C 78.589844 51.152344 78.933594 48.902344 78.445312 46.84375 L 82.046875 34.5625 C 82.183594 34.101562 82.007812 33.601562 81.609375 33.324219 Z M 75.441406 51.738281 C 74.613281 52.929688 73.371094 53.730469 71.941406 53.984375 C 70.523438 54.242188 69.082031 53.925781 67.894531 53.09375 C 65.4375 51.382812 64.828125 47.984375 66.535156 45.519531 C 67.363281 44.324219 68.605469 43.527344 70.035156 43.273438 C 70.355469 43.214844 70.679688 43.183594 71 43.183594 C 72.097656 43.183594 73.164062 43.519531 74.085938 44.160156 C 76.542969 45.875 77.152344 49.273438 75.441406 51.738281 Z M 76.984375 43.824219 C 76.53125 43.257812 75.996094 42.746094 75.375 42.3125 C 74.757812 41.882812 74.09375 41.550781 73.398438 41.320312 L 78.929688 37.179688 Z M 50.183594 29.347656 C 48.261719 31.4375 46.644531 33.808594 45.410156 36.402344 L 50.371094 38.535156 C 50.945312 38.78125 51.207031 39.445312 50.960938 40.015625 C 50.777344 40.441406 50.363281 40.699219 49.925781 40.699219 C 49.777344 40.699219 49.625 40.667969 49.480469 40.605469 L 44.523438 38.472656 C 43.445312 41.296875 42.800781 44.332031 42.675781 47.5 L 48.070312 47.5 C 48.695312 47.5 49.199219 48.003906 49.199219 48.625 C 49.199219 49.246094 48.695312 49.753906 48.070312 49.753906 L 42.675781 49.753906 C 42.789062 52.648438 43.328125 55.46875 44.265625 58.132812 L 49.292969 56.117188 C 49.871094 55.886719 50.527344 56.167969 50.757812 56.746094 C 50.988281 57.324219 50.710938 57.980469 50.132812 58.210938 L 45.109375 60.226562 C 46.351562 63.019531 48.054688 65.613281 50.175781 67.914062 L 53.988281 64.085938 C 54.429688 63.648438 55.144531 63.644531 55.582031 64.085938 C 56.023438 64.523438 56.023438 65.238281 55.585938 65.679688 L 50.953125 70.324219 C 50.953125 70.328125 50.953125 70.328125 50.953125 70.328125 C 50.875 70.402344 50.78125 70.449219 50.691406 70.5 C 50.652344 70.519531 50.621094 70.554688 50.582031 70.574219 C 50.445312 70.628906 50.300781 70.65625 50.15625 70.65625 C 50.011719 70.65625 49.867188 70.628906 49.734375 70.574219 C 49.691406 70.554688 49.660156 70.519531 49.621094 70.5 C 49.53125 70.449219 49.4375 70.402344 49.363281 70.328125 C 49.363281 70.328125 49.363281 70.324219 49.363281 70.324219 C 49.359375 70.324219 49.359375 70.324219 49.359375 70.324219 C 43.578125 64.527344 40.394531 56.820312 40.394531 48.625 C 40.394531 44.34375 41.28125 40.261719 42.867188 36.554688 C 42.871094 36.550781 42.867188 36.542969 42.871094 36.535156 C 42.875 36.53125 42.878906 36.523438 42.882812 36.519531 C 44.421875 32.945312 46.613281 29.71875 49.316406 26.996094 C 49.332031 26.972656 49.339844 26.945312 49.363281 26.925781 C 49.382812 26.90625 49.40625 26.898438 49.429688 26.882812 C 52.3125 24.003906 55.769531 21.703125 59.605469 20.15625 C 59.617188 20.148438 59.625 20.140625 59.636719 20.132812 C 59.648438 20.128906 59.664062 20.132812 59.675781 20.128906 C 63.179688 18.722656 67 17.941406 71 17.941406 C 75.273438 17.941406 79.339844 18.824219 83.039062 20.417969 C 83.042969 20.417969 83.050781 20.417969 83.054688 20.421875 C 83.0625 20.425781 83.066406 20.429688 83.074219 20.433594 C 86.640625 21.972656 89.859375 24.171875 92.574219 26.882812 C 92.59375 26.898438 92.621094 26.90625 92.640625 26.925781 C 92.660156 26.945312 92.667969 26.972656 92.6875 26.996094 C 95.558594 29.886719 97.851562 33.351562 99.394531 37.195312 C 99.402344 37.207031 99.410156 37.214844 99.414062 37.226562 C 99.421875 37.238281 99.417969 37.253906 99.421875 37.265625 C 100.824219 40.78125 101.605469 44.613281 101.605469 48.625 C 101.605469 49.246094 101.101562 49.75 100.480469 49.75 L 93.929688 49.75 C 93.304688 49.75 92.800781 49.246094 92.800781 48.625 C 92.800781 48.003906 93.304688 47.496094 93.929688 47.496094 L 99.324219 47.496094 C 99.207031 44.570312 98.652344 41.757812 97.71875 39.121094 L 92.707031 41.132812 C 92.570312 41.1875 92.425781 41.214844 92.289062 41.214844 C 91.839844 41.214844 91.417969 40.945312 91.242188 40.507812 C 91.007812 39.929688 91.289062 39.273438 91.867188 39.039062 L 96.875 37.03125 C 95.609375 34.195312 93.890625 31.601562 91.816406 29.347656 L 88.007812 33.164062 C 87.789062 33.382812 87.5 33.492188 87.210938 33.492188 C 86.921875 33.492188 86.636719 33.382812 86.414062 33.164062 C 85.972656 32.726562 85.972656 32.011719 86.414062 31.570312 L 90.222656 27.75 C 88.144531 25.824219 85.777344 24.199219 83.195312 22.960938 L 81.066406 27.933594 C 80.882812 28.363281 80.46875 28.621094 80.03125 28.621094 C 79.882812 28.621094 79.734375 28.589844 79.589844 28.527344 C 79.015625 28.285156 78.75 27.621094 78.996094 27.046875 L 81.121094 22.070312 C 78.308594 20.988281 75.285156 20.34375 72.125 20.21875 L 72.125 25.636719 C 72.125 26.257812 71.621094 26.761719 71 26.761719 C 70.375 26.761719 69.871094 26.257812 69.871094 25.636719 L 69.871094 20.222656 C 66.957031 20.335938 64.152344 20.894531 61.523438 21.832031 L 63.53125 26.863281 C 63.761719 27.441406 63.480469 28.09375 62.902344 28.324219 C 62.765625 28.378906 62.625 28.40625 62.484375 28.40625 C 62.039062 28.40625 61.613281 28.136719 61.4375 27.695312 L 59.433594 22.675781 C 56.605469 23.949219 54.023438 25.667969 51.773438 27.75 L 55.585938 31.570312 C 56.023438 32.011719 56.023438 32.726562 55.582031 33.164062 C 55.363281 33.386719 55.074219 33.496094 54.785156 33.496094 C 54.496094 33.496094 54.207031 33.382812 53.988281 33.164062 Z M 67.585938 66.65625 L 60.824219 66.65625 C 60.199219 66.65625 59.695312 67.164062 59.695312 67.785156 L 59.695312 79.054688 C 59.695312 79.675781 60.199219 80.183594 60.824219 80.183594 L 67.585938 80.183594 C 68.207031 80.183594 68.710938 79.675781 68.710938 79.054688 L 68.710938 67.785156 C 68.710938 67.164062 68.207031 66.65625 67.585938 66.65625 Z M 66.457031 77.929688 L 61.949219 77.929688 L 61.949219 68.910156 L 66.457031 68.910156 Z M 85.617188 71.164062 L 78.832031 71.164062 L 78.832031 67.785156 C 78.832031 67.164062 78.328125 66.65625 77.707031 66.65625 L 72.058594 66.65625 C 71.433594 66.65625 70.929688 67.164062 70.929688 67.785156 L 70.929688 79.054688 C 70.929688 79.675781 71.433594 80.183594 72.058594 80.183594 L 85.617188 80.183594 C 86.238281 80.183594 86.742188 79.675781 86.742188 79.054688 L 86.742188 72.292969 C 86.742188 71.671875 86.238281 71.164062 85.617188 71.164062 Z M 84.488281 77.929688 L 73.183594 77.929688 L 73.183594 68.910156 L 76.582031 68.910156 L 76.582031 72.292969 C 76.582031 72.914062 77.085938 73.417969 77.707031 73.417969 L 84.492188 73.417969 L 84.492188 77.929688 Z M 99.140625 59.714844 C 99.140625 65.097656 96.429688 70.148438 91.882812 73.226562 C 91.6875 73.355469 91.46875 73.417969 91.253906 73.417969 C 90.890625 73.417969 90.535156 73.246094 90.320312 72.925781 C 89.96875 72.410156 90.105469 71.710938 90.621094 71.359375 C 94.226562 68.917969 96.496094 65.046875 96.839844 60.839844 L 77.726562 60.839844 L 77.726562 62.996094 C 77.726562 63.621094 77.222656 64.125 76.601562 64.125 C 75.976562 64.125 75.472656 63.621094 75.472656 62.996094 L 75.472656 59.714844 C 75.472656 59.089844 75.976562 58.585938 76.601562 58.585938 L 98.015625 58.585938 C 98.636719 58.585938 99.140625 59.089844 99.140625 59.714844 Z M 112.488281 23.414062 C 109.085938 23.414062 105.765625 24.011719 102.589844 25.148438 C 95.414062 15.464844 83.925781 9.179688 71 9.179688 C 58.074219 9.179688 46.585938 15.464844 39.410156 25.148438 C 36.238281 24.015625 32.917969 23.414062 29.515625 23.414062 C 13.238281 23.414062 0 36.6875 0 53.003906 C 0 69.324219 13.238281 82.597656 29.515625 82.597656 C 35.015625 82.597656 40.34375 81.0625 44.992188 78.183594 C 51.929688 84.328125 61.035156 88.070312 71 88.070312 C 80.964844 88.070312 90.070312 84.328125 97.007812 78.183594 C 101.660156 81.0625 106.984375 82.597656 112.488281 82.597656 C 128.761719 82.597656 142 69.320312 142 53.003906 C 142 36.6875 128.761719 23.414062 112.488281 23.414062 Z M 29.515625 80.34375 C 14.484375 80.34375 2.253906 68.078125 2.253906 53.003906 C 2.253906 37.933594 14.484375 25.667969 29.515625 25.667969 C 32.457031 25.667969 35.324219 26.160156 38.078125 27.074219 C 34.917969 31.914062 32.789062 37.488281 32.007812 43.484375 L 29.515625 43.484375 C 28.890625 43.484375 28.386719 43.988281 28.386719 44.613281 L 28.386719 57.382812 C 28.386719 58.007812 28.890625 58.511719 29.515625 58.511719 L 32.789062 58.511719 C 32.832031 58.511719 32.867188 58.492188 32.910156 58.488281 C 33.09375 59.214844 33.308594 59.925781 33.535156 60.636719 L 20.78125 60.636719 C 20.15625 60.636719 19.652344 61.140625 19.652344 61.761719 C 19.652344 62.386719 20.15625 62.890625 20.78125 62.890625 L 34.335938 62.890625 C 36.347656 68.074219 39.414062 72.730469 43.285156 76.585938 C 39.117188 79.039062 34.390625 80.34375 29.515625 80.34375 Z M 31.660156 56.257812 L 30.640625 56.257812 L 30.640625 45.738281 L 31.660156 45.738281 Z M 33.914062 48.625 C 33.914062 28.117188 50.550781 11.433594 71 11.433594 C 91.449219 11.433594 108.085938 28.117188 108.085938 48.625 C 108.085938 69.132812 91.449219 85.816406 71 85.816406 C 50.550781 85.816406 33.914062 69.132812 33.914062 48.625 Z M 109.949219 54.132812 L 114.636719 54.132812 L 114.636719 60.636719 L 108.46875 60.636719 C 109.140625 58.539062 109.636719 56.363281 109.949219 54.132812 Z M 107.667969 62.890625 L 115.761719 62.890625 C 116.386719 62.890625 116.890625 62.386719 116.890625 61.761719 L 116.890625 53.003906 C 116.890625 52.382812 116.386719 51.878906 115.761719 51.878906 L 110.195312 51.878906 C 110.28125 50.804688 110.339844 49.722656 110.339844 48.625 C 110.339844 47.15625 110.25 45.707031 110.09375 44.277344 L 114.636719 44.277344 L 114.636719 46.4375 C 114.636719 47.058594 115.136719 47.5625 115.761719 47.5625 C 116.386719 47.5625 116.890625 47.058594 116.890625 46.4375 L 116.890625 43.152344 C 116.890625 42.53125 116.386719 42.023438 115.761719 42.023438 L 109.777344 42.023438 C 109.304688 39.230469 108.539062 36.542969 107.515625 33.980469 C 109.128906 33.554688 110.796875 33.332031 112.488281 33.332031 C 123.304688 33.332031 132.101562 42.15625 132.101562 53.003906 C 132.101562 63.855469 123.300781 72.679688 112.488281 72.679688 C 109.414062 72.679688 106.386719 71.953125 103.664062 70.578125 C 105.269531 68.191406 106.609375 65.609375 107.667969 62.890625 Z M 112.488281 80.34375 C 107.613281 80.34375 102.886719 79.039062 98.71875 76.585938 C 100.023438 75.289062 101.234375 73.898438 102.347656 72.425781 C 105.460938 74.0625 108.945312 74.933594 112.488281 74.933594 C 124.546875 74.933594 134.359375 65.097656 134.359375 53.003906 C 134.359375 40.914062 124.546875 31.078125 112.488281 31.078125 C 110.488281 31.078125 108.519531 31.363281 106.613281 31.894531 C 105.828125 30.21875 104.925781 28.609375 103.921875 27.074219 C 106.679688 26.160156 109.546875 25.667969 112.488281 25.667969 C 127.519531 25.667969 139.746094 37.929688 139.746094 53.003906 C 139.746094 68.082031 127.519531 80.34375 112.488281 80.34375 Z M 19.828125 48.625 C 19.828125 48.015625 19.34375 47.527344 18.738281 47.503906 L 18.738281 44.246094 C 18.738281 43.625 18.234375 43.121094 17.609375 43.121094 L 13.277344 43.121094 L 13.277344 42.058594 C 13.277344 41.433594 12.773438 40.929688 12.148438 40.929688 L 7.78125 40.929688 C 7.160156 40.929688 6.65625 41.433594 6.65625 42.058594 L 6.65625 56.257812 L 5.601562 56.257812 C 4.976562 56.257812 4.472656 56.761719 4.472656 57.382812 L 4.472656 61.761719 C 4.472656 62.386719 4.976562 62.890625 5.601562 62.890625 L 16.515625 62.890625 C 17.140625 62.890625 17.644531 62.386719 17.644531 61.761719 L 17.644531 57.382812 C 17.644531 56.761719 17.140625 56.257812 16.515625 56.257812 L 15.460938 56.257812 L 15.460938 55.226562 L 18.703125 55.226562 C 19.324219 55.226562 19.828125 54.722656 19.828125 54.097656 Z M 16.480469 45.375 L 16.480469 47.5 L 13.277344 47.5 L 13.277344 45.375 Z M 15.390625 60.636719 L 6.726562 60.636719 L 6.726562 58.511719 L 15.390625 58.511719 Z M 8.910156 56.257812 L 8.910156 43.183594 L 11.023438 43.183594 L 11.023438 48.625 C 11.023438 49.246094 11.527344 49.753906 12.148438 49.753906 L 13.207031 49.753906 L 13.207031 56.257812 Z M 17.574219 52.972656 L 15.460938 52.972656 L 15.460938 49.753906 L 17.574219 49.753906 Z M 22.503906 58.511719 L 25.886719 58.511719 C 26.507812 58.511719 27.011719 58.007812 27.011719 57.382812 L 27.011719 42.058594 C 27.011719 41.433594 26.507812 40.929688 25.886719 40.929688 L 22.503906 40.929688 C 21.882812 40.929688 21.378906 41.433594 21.378906 42.058594 L 21.378906 57.382812 C 21.378906 58.007812 21.882812 58.511719 22.503906 58.511719 Z M 23.632812 43.183594 L 24.757812 43.183594 L 24.757812 56.257812 L 23.632812 56.257812 Z M 120.425781 47.234375 C 119.984375 46.792969 119.984375 46.082031 120.425781 45.640625 L 123.699219 42.355469 C 124.023438 42.03125 124.507812 41.9375 124.925781 42.109375 C 125.347656 42.285156 125.625 42.695312 125.625 43.152344 L 125.625 61.761719 C 125.625 62.386719 125.121094 62.890625 124.496094 62.890625 C 123.875 62.890625 123.371094 62.386719 123.371094 61.761719 L 123.371094 45.878906 L 122.019531 47.230469 C 121.582031 47.671875 120.871094 47.675781 120.425781 47.234375 Z M 120.425781 47.234375 " clip-rule="nonzero"/></clipPath><linearGradient x1="63" gradientTransform="matrix(1.126998, 0, 0, 1.126998, 0.000000000000021242, 9.181018)" y1="0.00000164701" x2="63" gradientUnits="userSpaceOnUse" y2="70.000003" id="313cb928a8"><stop stop-opacity="1" stop-color="rgb(99.998474%, 39.99939%, 76.899719%)" offset="0"/><stop stop-opacity="1" stop-color="rgb(99.607849%, 40.074158%, 76.870728%)" offset="0.00390625"/><stop stop-opacity="1" stop-color="rgb(99.217224%, 40.148926%, 76.843262%)" offset="0.0078125"/><stop stop-opacity="1" stop-color="rgb(98.826599%, 40.223694%, 76.815796%)" offset="0.0117188"/><stop stop-opacity="1" stop-color="rgb(98.435974%, 40.299988%, 76.78833%)" offset="0.015625"/><stop stop-opacity="1" stop-color="rgb(98.045349%, 40.374756%, 76.760864%)" offset="0.0195312"/><stop stop-opacity="1" stop-color="rgb(97.654724%, 40.449524%, 76.733398%)" offset="0.0234375"/><stop stop-opacity="1" stop-color="rgb(97.264099%, 40.524292%, 76.704407%)" offset="0.0273437"/><stop stop-opacity="1" stop-color="rgb(96.873474%, 40.59906%, 76.676941%)" offset="0.03125"/><stop stop-opacity="1" stop-color="rgb(96.482849%, 40.673828%, 76.649475%)" offset="0.0351562"/><stop stop-opacity="1" stop-color="rgb(96.092224%, 40.748596%, 76.622009%)" offset="0.0390625"/><stop stop-opacity="1" stop-color="rgb(95.701599%, 40.823364%, 76.594543%)" offset="0.0429687"/><stop stop-opacity="1" stop-color="rgb(95.310974%, 40.899658%, 76.567078%)" offset="0.046875"/><stop stop-opacity="1" stop-color="rgb(94.920349%, 40.974426%, 76.538086%)" offset="0.0507812"/><stop stop-opacity="1" stop-color="rgb(94.529724%, 41.049194%, 76.51062%)" offset="0.0546875"/><stop stop-opacity="1" stop-color="rgb(94.139099%, 41.123962%, 76.483154%)" offset="0.0585937"/><stop stop-opacity="1" stop-color="rgb(93.748474%, 41.19873%, 76.455688%)" offset="0.0625"/><stop stop-opacity="1" stop-color="rgb(93.357849%, 41.273499%, 76.428223%)" offset="0.0664063"/><stop stop-opacity="1" stop-color="rgb(92.967224%, 41.349792%, 76.400757%)" offset="0.0703125"/><stop stop-opacity="1" stop-color="rgb(92.576599%, 41.424561%, 76.371765%)" offset="0.0742188"/><stop stop-opacity="1" stop-color="rgb(92.185974%, 41.499329%, 76.344299%)" offset="0.078125"/><stop stop-opacity="1" stop-color="rgb(91.795349%, 41.574097%, 76.316833%)" offset="0.0820312"/><stop stop-opacity="1" stop-color="rgb(91.404724%, 41.648865%, 76.289368%)" offset="0.0859375"/><stop stop-opacity="1" stop-color="rgb(91.014099%, 41.723633%, 76.260376%)" offset="0.0898438"/><stop stop-opacity="1" stop-color="rgb(90.623474%, 41.799927%, 76.23291%)" offset="0.09375"/><stop stop-opacity="1" stop-color="rgb(90.232849%, 41.874695%, 76.205444%)" offset="0.0976562"/><stop stop-opacity="1" stop-color="rgb(89.842224%, 41.949463%, 76.177979%)" offset="0.101562"/><stop stop-opacity="1" stop-color="rgb(89.451599%, 42.024231%, 76.150513%)" offset="0.105469"/><stop stop-opacity="1" stop-color="rgb(89.060974%, 42.098999%, 76.123047%)" offset="0.109375"/><stop stop-opacity="1" stop-color="rgb(88.670349%, 42.173767%, 76.094055%)" offset="0.113281"/><stop stop-opacity="1" stop-color="rgb(88.279724%, 42.248535%, 76.066589%)" offset="0.117188"/><stop stop-opacity="1" stop-color="rgb(87.889099%, 42.323303%, 76.039124%)" offset="0.121094"/><stop stop-opacity="1" stop-color="rgb(87.498474%, 42.399597%, 76.011658%)" offset="0.125"/><stop stop-opacity="1" stop-color="rgb(87.107849%, 42.474365%, 75.984192%)" offset="0.128906"/><stop stop-opacity="1" stop-color="rgb(86.717224%, 42.549133%, 75.956726%)" offset="0.132812"/><stop stop-opacity="1" stop-color="rgb(86.326599%, 42.623901%, 75.927734%)" offset="0.136719"/><stop stop-opacity="1" stop-color="rgb(85.935974%, 42.698669%, 75.900269%)" offset="0.140625"/><stop stop-opacity="1" stop-color="rgb(85.545349%, 42.773438%, 75.872803%)" offset="0.144531"/><stop stop-opacity="1" stop-color="rgb(85.154724%, 42.849731%, 75.845337%)" offset="0.148438"/><stop stop-opacity="1" stop-color="rgb(84.764099%, 42.9245%, 75.817871%)" offset="0.152344"/><stop stop-opacity="1" stop-color="rgb(84.373474%, 42.999268%, 75.790405%)" offset="0.15625"/><stop stop-opacity="1" stop-color="rgb(83.982849%, 43.074036%, 75.761414%)" offset="0.160156"/><stop stop-opacity="1" stop-color="rgb(83.592224%, 43.148804%, 75.733948%)" offset="0.164062"/><stop stop-opacity="1" stop-color="rgb(83.201599%, 43.223572%, 75.706482%)" offset="0.167969"/><stop stop-opacity="1" stop-color="rgb(82.810974%, 43.299866%, 75.679016%)" offset="0.171875"/><stop stop-opacity="1" stop-color="rgb(82.420349%, 43.374634%, 75.65155%)" offset="0.175781"/><stop stop-opacity="1" stop-color="rgb(82.029724%, 43.449402%, 75.624084%)" offset="0.179687"/><stop stop-opacity="1" stop-color="rgb(81.639099%, 43.52417%, 75.595093%)" offset="0.183594"/><stop stop-opacity="1" stop-color="rgb(81.248474%, 43.598938%, 75.567627%)" offset="0.1875"/><stop stop-opacity="1" stop-color="rgb(80.857849%, 43.673706%, 75.540161%)" offset="0.191406"/><stop stop-opacity="1" stop-color="rgb(80.467224%, 43.75%, 75.512695%)" offset="0.195312"/><stop stop-opacity="1" stop-color="rgb(80.076599%, 43.824768%, 75.485229%)" offset="0.199219"/><stop stop-opacity="1" stop-color="rgb(79.685974%, 43.899536%, 75.457764%)" offset="0.203125"/><stop stop-opacity="1" stop-color="rgb(79.295349%, 43.974304%, 75.428772%)" offset="0.207031"/><stop stop-opacity="1" stop-color="rgb(78.904724%, 44.049072%, 75.401306%)" offset="0.210938"/><stop stop-opacity="1" stop-color="rgb(78.514099%, 44.12384%, 75.37384%)" offset="0.214844"/><stop stop-opacity="1" stop-color="rgb(78.123474%, 44.198608%, 75.346375%)" offset="0.21875"/><stop stop-opacity="1" stop-color="rgb(77.732849%, 44.273376%, 75.317383%)" offset="0.222656"/><stop stop-opacity="1" stop-color="rgb(77.342224%, 44.34967%, 75.289917%)" offset="0.226562"/><stop stop-opacity="1" stop-color="rgb(76.951599%, 44.424438%, 75.262451%)" offset="0.230469"/><stop stop-opacity="1" stop-color="rgb(76.560974%, 44.499207%, 75.234985%)" offset="0.234375"/><stop stop-opacity="1" stop-color="rgb(76.170349%, 44.573975%, 75.20752%)" offset="0.238281"/><stop stop-opacity="1" stop-color="rgb(75.779724%, 44.648743%, 75.180054%)" offset="0.242187"/><stop stop-opacity="1" stop-color="rgb(75.389099%, 44.723511%, 75.151062%)" offset="0.246094"/><stop stop-opacity="1" stop-color="rgb(74.998474%, 44.799805%, 75.123596%)" offset="0.25"/><stop stop-opacity="1" stop-color="rgb(74.607849%, 44.874573%, 75.09613%)" offset="0.253906"/><stop stop-opacity="1" stop-color="rgb(74.217224%, 44.949341%, 75.068665%)" offset="0.257812"/><stop stop-opacity="1" stop-color="rgb(73.826599%, 45.024109%, 75.041199%)" offset="0.261719"/><stop stop-opacity="1" stop-color="rgb(73.435974%, 45.098877%, 75.013733%)" offset="0.265625"/><stop stop-opacity="1" stop-color="rgb(73.045349%, 45.173645%, 74.984741%)" offset="0.269531"/><stop stop-opacity="1" stop-color="rgb(72.654724%, 45.249939%, 74.957275%)" offset="0.273437"/><stop stop-opacity="1" stop-color="rgb(72.264099%, 45.324707%, 74.92981%)" offset="0.277344"/><stop stop-opacity="1" stop-color="rgb(71.873474%, 45.399475%, 74.902344%)" offset="0.28125"/><stop stop-opacity="1" stop-color="rgb(71.482849%, 45.474243%, 74.874878%)" offset="0.285156"/><stop stop-opacity="1" stop-color="rgb(71.092224%, 45.549011%, 74.847412%)" offset="0.289062"/><stop stop-opacity="1" stop-color="rgb(70.701599%, 45.623779%, 74.81842%)" offset="0.292969"/><stop stop-opacity="1" stop-color="rgb(70.310974%, 45.698547%, 74.790955%)" offset="0.296875"/><stop stop-opacity="1" stop-color="rgb(69.920349%, 45.773315%, 74.763489%)" offset="0.300781"/><stop stop-opacity="1" stop-color="rgb(69.529724%, 45.849609%, 74.736023%)" offset="0.304687"/><stop stop-opacity="1" stop-color="rgb(69.139099%, 45.924377%, 74.708557%)" offset="0.308594"/><stop stop-opacity="1" stop-color="rgb(68.748474%, 45.999146%, 74.681091%)" offset="0.3125"/><stop stop-opacity="1" stop-color="rgb(68.357849%, 46.073914%, 74.6521%)" offset="0.316406"/><stop stop-opacity="1" stop-color="rgb(67.967224%, 46.148682%, 74.624634%)" offset="0.320312"/><stop stop-opacity="1" stop-color="rgb(67.576599%, 46.22345%, 74.597168%)" offset="0.324219"/><stop stop-opacity="1" stop-color="rgb(67.185974%, 46.299744%, 74.569702%)" offset="0.328125"/><stop stop-opacity="1" stop-color="rgb(66.795349%, 46.374512%, 74.542236%)" offset="0.332031"/><stop stop-opacity="1" stop-color="rgb(66.404724%, 46.44928%, 74.514771%)" offset="0.335937"/><stop stop-opacity="1" stop-color="rgb(66.014099%, 46.524048%, 74.485779%)" offset="0.339844"/><stop stop-opacity="1" stop-color="rgb(65.623474%, 46.598816%, 74.458313%)" offset="0.34375"/><stop stop-opacity="1" stop-color="rgb(65.232849%, 46.673584%, 74.430847%)" offset="0.347656"/><stop stop-opacity="1" stop-color="rgb(64.842224%, 46.749878%, 74.403381%)" offset="0.351562"/><stop stop-opacity="1" stop-color="rgb(64.451599%, 46.824646%, 74.37439%)" offset="0.355469"/><stop stop-opacity="1" stop-color="rgb(64.060974%, 46.899414%, 74.346924%)" offset="0.359375"/><stop stop-opacity="1" stop-color="rgb(63.670349%, 46.974182%, 74.319458%)" offset="0.363281"/><stop stop-opacity="1" stop-color="rgb(63.279724%, 47.04895%, 74.291992%)" offset="0.367187"/><stop stop-opacity="1" stop-color="rgb(62.889099%, 47.123718%, 74.264526%)" offset="0.371094"/><stop stop-opacity="1" stop-color="rgb(62.498474%, 47.198486%, 74.237061%)" offset="0.375"/><stop stop-opacity="1" stop-color="rgb(62.107849%, 47.273254%, 74.208069%)" offset="0.378906"/><stop stop-opacity="1" stop-color="rgb(61.717224%, 47.349548%, 74.180603%)" offset="0.382812"/><stop stop-opacity="1" stop-color="rgb(61.326599%, 47.424316%, 74.153137%)" offset="0.386719"/><stop stop-opacity="1" stop-color="rgb(60.935974%, 47.499084%, 74.125671%)" offset="0.390625"/><stop stop-opacity="1" stop-color="rgb(60.545349%, 47.573853%, 74.098206%)" offset="0.394531"/><stop stop-opacity="1" stop-color="rgb(60.154724%, 47.648621%, 74.07074%)" offset="0.398437"/><stop stop-opacity="1" stop-color="rgb(59.764099%, 47.723389%, 74.041748%)" offset="0.402344"/><stop stop-opacity="1" stop-color="rgb(59.373474%, 47.799683%, 74.014282%)" offset="0.40625"/><stop stop-opacity="1" stop-color="rgb(58.982849%, 47.874451%, 73.986816%)" offset="0.410156"/><stop stop-opacity="1" stop-color="rgb(58.592224%, 47.949219%, 73.959351%)" offset="0.414062"/><stop stop-opacity="1" stop-color="rgb(58.201599%, 48.023987%, 73.931885%)" offset="0.417969"/><stop stop-opacity="1" stop-color="rgb(57.810974%, 48.098755%, 73.904419%)" offset="0.421875"/><stop stop-opacity="1" stop-color="rgb(57.420349%, 48.173523%, 73.875427%)" offset="0.425781"/><stop stop-opacity="1" stop-color="rgb(57.029724%, 48.249817%, 73.847961%)" offset="0.429687"/><stop stop-opacity="1" stop-color="rgb(56.639099%, 48.324585%, 73.820496%)" offset="0.433594"/><stop stop-opacity="1" stop-color="rgb(56.248474%, 48.399353%, 73.79303%)" offset="0.4375"/><stop stop-opacity="1" stop-color="rgb(55.857849%, 48.474121%, 73.765564%)" offset="0.441406"/><stop stop-opacity="1" stop-color="rgb(55.467224%, 48.548889%, 73.738098%)" offset="0.445312"/><stop stop-opacity="1" stop-color="rgb(55.076599%, 48.623657%, 73.709106%)" offset="0.449219"/><stop stop-opacity="1" stop-color="rgb(54.685974%, 48.699951%, 73.681641%)" offset="0.453125"/><stop stop-opacity="1" stop-color="rgb(54.295349%, 48.774719%, 73.654175%)" offset="0.457031"/><stop stop-opacity="1" stop-color="rgb(53.904724%, 48.849487%, 73.626709%)" offset="0.460937"/><stop stop-opacity="1" stop-color="rgb(53.514099%, 48.924255%, 73.599243%)" offset="0.464844"/><stop stop-opacity="1" stop-color="rgb(53.123474%, 48.999023%, 73.571777%)" offset="0.46875"/><stop stop-opacity="1" stop-color="rgb(52.732849%, 49.073792%, 73.542786%)" offset="0.472656"/><stop stop-opacity="1" stop-color="rgb(52.342224%, 49.14856%, 73.51532%)" offset="0.476562"/><stop stop-opacity="1" stop-color="rgb(51.951599%, 49.223328%, 73.487854%)" offset="0.480469"/><stop stop-opacity="1" stop-color="rgb(51.560974%, 49.299622%, 73.460388%)" offset="0.484375"/><stop stop-opacity="1" stop-color="rgb(51.170349%, 49.37439%, 73.432922%)" offset="0.488281"/><stop stop-opacity="1" stop-color="rgb(50.779724%, 49.449158%, 73.405457%)" offset="0.492187"/><stop stop-opacity="1" stop-color="rgb(50.389099%, 49.523926%, 73.376465%)" offset="0.496094"/><stop stop-opacity="1" stop-color="rgb(49.998474%, 49.598694%, 73.348999%)" offset="0.5"/><stop stop-opacity="1" stop-color="rgb(49.607849%, 49.673462%, 73.321533%)" offset="0.503906"/><stop stop-opacity="1" stop-color="rgb(49.217224%, 49.749756%, 73.294067%)" offset="0.507812"/><stop stop-opacity="1" stop-color="rgb(48.826599%, 49.824524%, 73.265076%)" offset="0.511719"/><stop stop-opacity="1" stop-color="rgb(48.435974%, 49.899292%, 73.23761%)" offset="0.515625"/><stop stop-opacity="1" stop-color="rgb(48.045349%, 49.97406%, 73.210144%)" offset="0.519531"/><stop stop-opacity="1" stop-color="rgb(47.654724%, 50.048828%, 73.182678%)" offset="0.523437"/><stop stop-opacity="1" stop-color="rgb(47.264099%, 50.123596%, 73.155212%)" offset="0.527344"/><stop stop-opacity="1" stop-color="rgb(46.873474%, 50.19989%, 73.127747%)" offset="0.53125"/><stop stop-opacity="1" stop-color="rgb(46.482849%, 50.274658%, 73.098755%)" offset="0.535156"/><stop stop-opacity="1" stop-color="rgb(46.092224%, 50.349426%, 73.071289%)" offset="0.539062"/><stop stop-opacity="1" stop-color="rgb(45.701599%, 50.424194%, 73.043823%)" offset="0.542969"/><stop stop-opacity="1" stop-color="rgb(45.310974%, 50.498962%, 73.016357%)" offset="0.546875"/><stop stop-opacity="1" stop-color="rgb(44.920349%, 50.57373%, 72.988892%)" offset="0.550781"/><stop stop-opacity="1" stop-color="rgb(44.529724%, 50.648499%, 72.961426%)" offset="0.554688"/><stop stop-opacity="1" stop-color="rgb(44.139099%, 50.723267%, 72.932434%)" offset="0.558594"/><stop stop-opacity="1" stop-color="rgb(43.748474%, 50.799561%, 72.904968%)" offset="0.5625"/><stop stop-opacity="1" stop-color="rgb(43.357849%, 50.874329%, 72.877502%)" offset="0.566406"/><stop stop-opacity="1" stop-color="rgb(42.967224%, 50.949097%, 72.850037%)" offset="0.570312"/><stop stop-opacity="1" stop-color="rgb(42.576599%, 51.023865%, 72.822571%)" offset="0.574219"/><stop stop-opacity="1" stop-color="rgb(42.185974%, 51.098633%, 72.795105%)" offset="0.578125"/><stop stop-opacity="1" stop-color="rgb(41.795349%, 51.173401%, 72.766113%)" offset="0.582031"/><stop stop-opacity="1" stop-color="rgb(41.404724%, 51.249695%, 72.738647%)" offset="0.585937"/><stop stop-opacity="1" stop-color="rgb(41.014099%, 51.324463%, 72.711182%)" offset="0.589844"/><stop stop-opacity="1" stop-color="rgb(40.623474%, 51.399231%, 72.683716%)" offset="0.59375"/><stop stop-opacity="1" stop-color="rgb(40.232849%, 51.473999%, 72.65625%)" offset="0.597656"/><stop stop-opacity="1" stop-color="rgb(39.842224%, 51.548767%, 72.628784%)" offset="0.601562"/><stop stop-opacity="1" stop-color="rgb(39.451599%, 51.623535%, 72.599792%)" offset="0.605469"/><stop stop-opacity="1" stop-color="rgb(39.060974%, 51.699829%, 72.572327%)" offset="0.609375"/><stop stop-opacity="1" stop-color="rgb(38.670349%, 51.774597%, 72.544861%)" offset="0.613281"/><stop stop-opacity="1" stop-color="rgb(38.279724%, 51.849365%, 72.517395%)" offset="0.617187"/><stop stop-opacity="1" stop-color="rgb(37.889099%, 51.924133%, 72.489929%)" offset="0.621094"/><stop stop-opacity="1" stop-color="rgb(37.498474%, 51.998901%, 72.462463%)" offset="0.625"/><stop stop-opacity="1" stop-color="rgb(37.107849%, 52.073669%, 72.433472%)" offset="0.628906"/><stop stop-opacity="1" stop-color="rgb(36.717224%, 52.149963%, 72.406006%)" offset="0.632812"/><stop stop-opacity="1" stop-color="rgb(36.326599%, 52.224731%, 72.37854%)" offset="0.636719"/><stop stop-opacity="1" stop-color="rgb(35.935974%, 52.2995%, 72.351074%)" offset="0.640625"/><stop stop-opacity="1" stop-color="rgb(35.545349%, 52.374268%, 72.322083%)" offset="0.644531"/><stop stop-opacity="1" stop-color="rgb(35.154724%, 52.449036%, 72.294617%)" offset="0.648438"/><stop stop-opacity="1" stop-color="rgb(34.764099%, 52.523804%, 72.267151%)" offset="0.652344"/><stop stop-opacity="1" stop-color="rgb(34.373474%, 52.598572%, 72.239685%)" offset="0.65625"/><stop stop-opacity="1" stop-color="rgb(33.982849%, 52.67334%, 72.212219%)" offset="0.660156"/><stop stop-opacity="1" stop-color="rgb(33.592224%, 52.749634%, 72.184753%)" offset="0.664062"/><stop stop-opacity="1" stop-color="rgb(33.201599%, 52.824402%, 72.155762%)" offset="0.667969"/><stop stop-opacity="1" stop-color="rgb(32.810974%, 52.89917%, 72.128296%)" offset="0.671875"/><stop stop-opacity="1" stop-color="rgb(32.420349%, 52.973938%, 72.10083%)" offset="0.675781"/><stop stop-opacity="1" stop-color="rgb(32.029724%, 53.048706%, 72.073364%)" offset="0.679687"/><stop stop-opacity="1" stop-color="rgb(31.639099%, 53.123474%, 72.045898%)" offset="0.683594"/><stop stop-opacity="1" stop-color="rgb(31.248474%, 53.199768%, 72.018433%)" offset="0.6875"/><stop stop-opacity="1" stop-color="rgb(30.857849%, 53.274536%, 71.989441%)" offset="0.691406"/><stop stop-opacity="1" stop-color="rgb(30.467224%, 53.349304%, 71.961975%)" offset="0.695312"/><stop stop-opacity="1" stop-color="rgb(30.076599%, 53.424072%, 71.934509%)" offset="0.699219"/><stop stop-opacity="1" stop-color="rgb(29.685974%, 53.49884%, 71.907043%)" offset="0.703125"/><stop stop-opacity="1" stop-color="rgb(29.295349%, 53.573608%, 71.879578%)" offset="0.707031"/><stop stop-opacity="1" stop-color="rgb(28.904724%, 53.649902%, 71.852112%)" offset="0.710937"/><stop stop-opacity="1" stop-color="rgb(28.514099%, 53.72467%, 71.82312%)" offset="0.714844"/><stop stop-opacity="1" stop-color="rgb(28.123474%, 53.799438%, 71.795654%)" offset="0.71875"/><stop stop-opacity="1" stop-color="rgb(27.732849%, 53.874207%, 71.768188%)" offset="0.722656"/><stop stop-opacity="1" stop-color="rgb(27.342224%, 53.948975%, 71.740723%)" offset="0.726562"/><stop stop-opacity="1" stop-color="rgb(26.951599%, 54.023743%, 71.713257%)" offset="0.730469"/><stop stop-opacity="1" stop-color="rgb(26.560974%, 54.098511%, 71.685791%)" offset="0.734375"/><stop stop-opacity="1" stop-color="rgb(26.170349%, 54.173279%, 71.656799%)" offset="0.738281"/><stop stop-opacity="1" stop-color="rgb(25.779724%, 54.249573%, 71.629333%)" offset="0.742188"/><stop stop-opacity="1" stop-color="rgb(25.389099%, 54.324341%, 71.601868%)" offset="0.746094"/><stop stop-opacity="1" stop-color="rgb(24.998474%, 54.399109%, 71.574402%)" offset="0.75"/><stop stop-opacity="1" stop-color="rgb(24.607849%, 54.473877%, 71.546936%)" offset="0.753906"/><stop stop-opacity="1" stop-color="rgb(24.217224%, 54.548645%, 71.51947%)" offset="0.757812"/><stop stop-opacity="1" stop-color="rgb(23.826599%, 54.623413%, 71.490479%)" offset="0.761719"/><stop stop-opacity="1" stop-color="rgb(23.435974%, 54.699707%, 71.463013%)" offset="0.765625"/><stop stop-opacity="1" stop-color="rgb(23.045349%, 54.774475%, 71.435547%)" offset="0.769531"/><stop stop-opacity="1" stop-color="rgb(22.654724%, 54.849243%, 71.408081%)" offset="0.773437"/><stop stop-opacity="1" stop-color="rgb(22.264099%, 54.924011%, 71.379089%)" offset="0.777344"/><stop stop-opacity="1" stop-color="rgb(21.873474%, 54.998779%, 71.351624%)" offset="0.78125"/><stop stop-opacity="1" stop-color="rgb(21.482849%, 55.073547%, 71.324158%)" offset="0.785156"/><stop stop-opacity="1" stop-color="rgb(21.092224%, 55.149841%, 71.296692%)" offset="0.789062"/><stop stop-opacity="1" stop-color="rgb(20.701599%, 55.224609%, 71.269226%)" offset="0.792969"/><stop stop-opacity="1" stop-color="rgb(20.310974%, 55.299377%, 71.24176%)" offset="0.796875"/><stop stop-opacity="1" stop-color="rgb(19.920349%, 55.374146%, 71.212769%)" offset="0.800781"/><stop stop-opacity="1" stop-color="rgb(19.529724%, 55.448914%, 71.185303%)" offset="0.804687"/><stop stop-opacity="1" stop-color="rgb(19.139099%, 55.523682%, 71.157837%)" offset="0.808594"/><stop stop-opacity="1" stop-color="rgb(18.748474%, 55.599976%, 71.130371%)" offset="0.8125"/><stop stop-opacity="1" stop-color="rgb(18.357849%, 55.674744%, 71.102905%)" offset="0.816406"/><stop stop-opacity="1" stop-color="rgb(17.967224%, 55.749512%, 71.075439%)" offset="0.820312"/><stop stop-opacity="1" stop-color="rgb(17.576599%, 55.82428%, 71.046448%)" offset="0.824219"/><stop stop-opacity="1" stop-color="rgb(17.185974%, 55.899048%, 71.018982%)" offset="0.828125"/><stop stop-opacity="1" stop-color="rgb(16.795349%, 55.973816%, 70.991516%)" offset="0.832031"/><stop stop-opacity="1" stop-color="rgb(16.404724%, 56.048584%, 70.96405%)" offset="0.835938"/><stop stop-opacity="1" stop-color="rgb(16.014099%, 56.123352%, 70.936584%)" offset="0.839844"/><stop stop-opacity="1" stop-color="rgb(15.623474%, 56.199646%, 70.909119%)" offset="0.84375"/><stop stop-opacity="1" stop-color="rgb(15.232849%, 56.274414%, 70.880127%)" offset="0.847656"/><stop stop-opacity="1" stop-color="rgb(14.842224%, 56.349182%, 70.852661%)" offset="0.851562"/><stop stop-opacity="1" stop-color="rgb(14.451599%, 56.42395%, 70.825195%)" offset="0.855469"/><stop stop-opacity="1" stop-color="rgb(14.060974%, 56.498718%, 70.797729%)" offset="0.859375"/><stop stop-opacity="1" stop-color="rgb(13.670349%, 56.573486%, 70.770264%)" offset="0.863281"/><stop stop-opacity="1" stop-color="rgb(13.279724%, 56.64978%, 70.742798%)" offset="0.867187"/><stop stop-opacity="1" stop-color="rgb(12.889099%, 56.724548%, 70.713806%)" offset="0.871094"/><stop stop-opacity="1" stop-color="rgb(12.498474%, 56.799316%, 70.68634%)" offset="0.875"/><stop stop-opacity="1" stop-color="rgb(12.107849%, 56.874084%, 70.658875%)" offset="0.878906"/><stop stop-opacity="1" stop-color="rgb(11.717224%, 56.948853%, 70.631409%)" offset="0.882812"/><stop stop-opacity="1" stop-color="rgb(11.326599%, 57.023621%, 70.603943%)" offset="0.886719"/><stop stop-opacity="1" stop-color="rgb(10.935974%, 57.099915%, 70.576477%)" offset="0.890625"/><stop stop-opacity="1" stop-color="rgb(10.545349%, 57.174683%, 70.547485%)" offset="0.894531"/><stop stop-opacity="1" stop-color="rgb(10.154724%, 57.249451%, 70.52002%)" offset="0.898437"/><stop stop-opacity="1" stop-color="rgb(9.764099%, 57.324219%, 70.492554%)" offset="0.902344"/><stop stop-opacity="1" stop-color="rgb(9.373474%, 57.398987%, 70.465088%)" offset="0.90625"/><stop stop-opacity="1" stop-color="rgb(8.982849%, 57.473755%, 70.436096%)" offset="0.910156"/><stop stop-opacity="1" stop-color="rgb(8.592224%, 57.548523%, 70.40863%)" offset="0.914062"/><stop stop-opacity="1" stop-color="rgb(8.201599%, 57.623291%, 70.381165%)" offset="0.917969"/><stop stop-opacity="1" stop-color="rgb(7.810974%, 57.699585%, 70.353699%)" offset="0.921875"/><stop stop-opacity="1" stop-color="rgb(7.420349%, 57.774353%, 70.326233%)" offset="0.925781"/><stop stop-opacity="1" stop-color="rgb(7.029724%, 57.849121%, 70.298767%)" offset="0.929688"/><stop stop-opacity="1" stop-color="rgb(6.639099%, 57.923889%, 70.269775%)" offset="0.933594"/><stop stop-opacity="1" stop-color="rgb(6.248474%, 57.998657%, 70.24231%)" offset="0.9375"/><stop stop-opacity="1" stop-color="rgb(5.857849%, 58.073425%, 70.214844%)" offset="0.941406"/><stop stop-opacity="1" stop-color="rgb(5.467224%, 58.149719%, 70.187378%)" offset="0.945312"/><stop stop-opacity="1" stop-color="rgb(5.076599%, 58.224487%, 70.159912%)" offset="0.949219"/><stop stop-opacity="1" stop-color="rgb(4.685974%, 58.299255%, 70.132446%)" offset="0.953125"/><stop stop-opacity="1" stop-color="rgb(4.295349%, 58.374023%, 70.103455%)" offset="0.957031"/><stop stop-opacity="1" stop-color="rgb(3.904724%, 58.448792%, 70.075989%)" offset="0.960937"/><stop stop-opacity="1" stop-color="rgb(3.514099%, 58.52356%, 70.048523%)" offset="0.964844"/><stop stop-opacity="1" stop-color="rgb(3.123474%, 58.599854%, 70.021057%)" offset="0.96875"/><stop stop-opacity="1" stop-color="rgb(2.732849%, 58.674622%, 69.993591%)" offset="0.972656"/><stop stop-opacity="1" stop-color="rgb(2.342224%, 58.74939%, 69.966125%)" offset="0.976562"/><stop stop-opacity="1" stop-color="rgb(1.951599%, 58.824158%, 69.937134%)" offset="0.980469"/><stop stop-opacity="1" stop-color="rgb(1.560974%, 58.898926%, 69.909668%)" offset="0.984375"/><stop stop-opacity="1" stop-color="rgb(1.170349%, 58.973694%, 69.882202%)" offset="0.988281"/><stop stop-opacity="1" stop-color="rgb(0.779724%, 59.049988%, 69.854736%)" offset="0.992187"/><stop stop-opacity="1" stop-color="rgb(0.389099%, 59.124756%, 69.827271%)" offset="0.996094"/><stop stop-opacity="1" stop-color="rgb(0%, 59.199524%, 69.799805%)" offset="1"/></linearGradient></defs><g clip-path="url(#694249a469)"><g clip-path="url(#230759d433)"><path fill="url(#313cb928a8)" d="M 0 9.179688 L 0 88.070312 L 142 88.070312 L 142 9.179688 Z M 0 9.179688 " fill-rule="nonzero"/></g></g></svg>